<?xml version="1.0" encoding="UTF-8"?>
<!DOCTYPE svg PUBLIC "-//W3C//DTD SVG 1.1//EN" "http://www.w3.org/Graphics/SVG/1.1/DTD/svg11.dtd">
<!-- Creator: CorelDRAW X8 -->
<svg xmlns="http://www.w3.org/2000/svg" xml:space="preserve" width="2450px" height="825px" version="1.1" style="shape-rendering:geometricPrecision; text-rendering:geometricPrecision; image-rendering:optimizeQuality; fill-rule:evenodd; clip-rule:evenodd"
viewBox="0 0 2450 825"
 xmlns:xlink="http://www.w3.org/1999/xlink">
 <defs>
  <style type="text/css">
   <![CDATA[
    .fil0 {fill:#DB1D44}
    .fil1 {fill:#552B6D}
   ]]>
  </style>
 </defs>
 <g id="Capa_x0020_1">
  <metadata id="CorelCorpID_0Corel-Layer"/>
  <path class="fil0" d="M180 56c92,4 179,53 208,134 15,41 14,107 -3,148 -31,77 -115,127 -205,127 -42,0 -85,0 -128,0 -30,0 -51,-22 -51,-52l0 -318c0,-9 0,-11 7,-14 43,-21 125,-27 172,-25zm-78 333l72 0c47,0 101,-27 120,-79 8,-23 8,-72 1,-95 -17,-55 -78,-80 -125,-83l-69 0c-4,0 -6,1 -6,5l0 245c0,5 2,7 7,7zm411 -333c27,0 49,22 49,49l0 329c0,17 -14,31 -30,31l-33 0c-17,0 -31,-14 -31,-31l0 -365c0,-14 34,-13 45,-13zm646 0c27,0 49,22 49,49l0 329c0,17 -13,31 -30,31l-33 0c-17,0 -31,-14 -31,-31l0 -365c0,-14 34,-13 45,-13zm470 36c0,22 -22,40 -49,40l-66 0c-8,0 -11,2 -11,10l0 292c0,17 -14,31 -31,31l-33 0c-17,0 -30,-14 -30,-31l0 -292c0,-8 -2,-10 -9,-10l-90 0c-17,0 -30,-11 -30,-25l0 -26c0,-14 13,-25 30,-25l306 0c14,0 13,28 13,36zm374 -36c7,0 11,5 11,12 4,37 -22,64 -70,64l-145 0c-5,0 -9,3 -9,8l0 79c0,4 3,7 8,7l139 0c17,0 31,14 31,31l0 11c0,17 -14,31 -31,31l-137 0c-8,0 -10,2 -10,10l0 71c0,6 2,9 9,9l204 0c7,0 11,5 11,12 4,37 -22,64 -70,64 -69,0 -127,0 -195,0 -33,0 -53,-22 -53,-55l0 -303c0,-31 15,-51 44,-51 79,0 173,0 263,0zm121 0c27,0 49,22 49,49l0 275c0,7 3,9 9,9l158 0c6,0 10,5 11,12 3,37 -23,64 -70,64l-171 0c-17,0 -31,-14 -31,-31l0 -365c0,-14 35,-13 45,-13zm276 0c27,0 49,22 49,49 0,28 -22,50 -49,50 -27,0 -49,-22 -49,-50 0,-27 22,-49 49,-49zm0 12c21,0 37,17 37,37 0,21 -16,37 -37,37 -20,0 -37,-16 -37,-37 0,-20 17,-37 37,-37zm-20 61l12 0 0 -19 4 0c5,0 7,2 8,8 2,6 3,9 4,11l13 0c-1,-2 -3,-8 -5,-13 -1,-5 -3,-8 -7,-9l0 0c5,-2 10,-6 10,-12 0,-4 -2,-7 -5,-9 -4,-3 -10,-4 -18,-4 -6,0 -12,0 -16,1l0 46zm12 -39c1,0 2,0 5,0 6,0 9,2 9,6 0,4 -3,7 -9,7l-5 0 0 -13z"/>
  <path class="fil1" d="M937 92c50,22 88,66 102,120 7,27 8,67 2,95 -15,75 -77,134 -154,144 -13,2 -33,3 -52,3 -20,29 -33,55 -9,81 45,51 118,35 133,127 9,53 -17,107 -59,139 -5,4 -12,8 -19,11 -22,11 -55,12 -79,7 -65,-16 -61,-85 -48,-83 36,6 79,10 107,-19 18,-18 20,-45 -4,-65 -23,-21 -58,-28 -88,-45 -63,-39 -63,-111 -29,-169 -58,-24 -101,-79 -109,-143 -2,-20 -2,-48 1,-68 14,-80 80,-142 162,-150 15,-1 36,-2 55,-2 17,-42 58,-72 106,-72l23 0c45,0 48,67 -2,67l-14 0c-13,0 -23,10 -25,22zm-163 75c-26,13 -46,41 -51,73 -2,13 -2,33 0,45 3,33 22,61 48,75 31,18 102,17 132,0 24,-13 42,-39 47,-69 3,-15 3,-43 -1,-59 -7,-29 -26,-53 -50,-65 -27,-14 -97,-14 -125,0z"/>
 </g>
</svg>
