<?xml version="1.0" encoding="UTF-8"?>
<!DOCTYPE svg PUBLIC "-//W3C//DTD SVG 1.1//EN" "http://www.w3.org/Graphics/SVG/1.1/DTD/svg11.dtd">
<!-- Creator: CorelDRAW 2017 -->
<svg xmlns="http://www.w3.org/2000/svg" xml:space="preserve" width="19px" height="17px" version="1.1" style="shape-rendering:geometricPrecision; text-rendering:geometricPrecision; image-rendering:optimizeQuality; fill-rule:evenodd; clip-rule:evenodd"
viewBox="0 0 3.84 3.48"
 xmlns:xlink="http://www.w3.org/1999/xlink">
 <defs>
  <style type="text/css">
   <![CDATA[
    .fil0 {fill:black;fill-rule:nonzero}
   ]]>
  </style>
 </defs>
 <g id="Capa_x0020_1">
  <metadata id="CorelCorpID_0Corel-Layer"/>
  <g id="_2518386243696">
   <path class="fil0" d="M0.04 1.59l1.8 -1.56c0.05,-0.04 0.11,-0.04 0.16,0l0.64 0.55 0 -0.22c0,-0.13 0.11,-0.24 0.24,-0.24 0.13,0 0.24,0.11 0.24,0.24l0 0.64 0.68 0.59c0.05,0.04 0.06,0.12 0.01,0.17 -0.04,0.05 -0.12,0.05 -0.17,0.01l-1.72 -1.49 -1.72 1.49c-0.02,0.02 -0.05,0.03 -0.08,0.03 -0.03,0 -0.07,-0.01 -0.09,-0.04 -0.04,-0.05 -0.04,-0.13 0.01,-0.17z"/>
   <path class="fil0" d="M1.77 0.89c0.04,-0.03 0.1,-0.05 0.15,-0.05 0.05,0 0.11,0.02 0.15,0.05l1.2 0.99c0.06,0.04 0.09,0.11 0.09,0.18l0 1.18c0,0.13 -0.11,0.24 -0.24,0.24l-0.72 0 0 -1.2 -0.96 0 0 1.2 -0.72 0c-0.13,0 -0.24,-0.11 -0.24,-0.24l0 -1.18c0,-0.07 0.03,-0.14 0.09,-0.18l1.2 -0.99z"/>
  </g>
 </g>
</svg>
