<?xml version="1.0" encoding="UTF-8"?>
<!DOCTYPE svg PUBLIC "-//W3C//DTD SVG 1.1//EN" "http://www.w3.org/Graphics/SVG/1.1/DTD/svg11.dtd">
<!-- Creator: CorelDRAW 2017 -->
<svg xmlns="http://www.w3.org/2000/svg" xml:space="preserve" width="17px" height="17px" version="1.1" style="shape-rendering:geometricPrecision; text-rendering:geometricPrecision; image-rendering:optimizeQuality; fill-rule:evenodd; clip-rule:evenodd"
viewBox="0 0 1.38 1.38"
 xmlns:xlink="http://www.w3.org/1999/xlink">
 <defs>
  <style type="text/css">
   <![CDATA[
    .fil0 {fill:black;fill-rule:nonzero}
   ]]>
  </style>
 </defs>
 <g id="Capa_x0020_1">
  <metadata id="CorelCorpID_0Corel-Layer"/>
  <path class="fil0" d="M1.24 0l-1.1 0c-0.08,0 -0.14,0.06 -0.14,0.14l0 1.1c0,0.07 0.06,0.14 0.14,0.14l1.1 0c0.08,0 0.14,-0.07 0.14,-0.14l0 -1.1c0,-0.08 -0.06,-0.14 -0.14,-0.14zm-0.07 0.14l0 0.2 -0.14 0c-0.04,0 -0.07,0.03 -0.07,0.07l0 0.14 0.21 0 0 0.21 -0.21 0 0 0.48 -0.2 0 0 -0.48 -0.14 0 0 -0.21 0.14 0 0 -0.17c0,-0.13 0.11,-0.24 0.24,-0.24l0.17 0z"/>
 </g>
</svg>
