<?xml version="1.0" encoding="UTF-8"?>
<!DOCTYPE svg PUBLIC "-//W3C//DTD SVG 1.1//EN" "http://www.w3.org/Graphics/SVG/1.1/DTD/svg11.dtd">
<!-- Creator: CorelDRAW 2017 -->
<svg xmlns="http://www.w3.org/2000/svg" xml:space="preserve" width="17px" height="17px" version="1.1" style="shape-rendering:geometricPrecision; text-rendering:geometricPrecision; image-rendering:optimizeQuality; fill-rule:evenodd; clip-rule:evenodd"
viewBox="0 0 1.89 1.89"
 xmlns:xlink="http://www.w3.org/1999/xlink">
 <defs>
  <style type="text/css">
   <![CDATA[
    .fil0 {fill:black}
   ]]>
  </style>
 </defs>
 <g id="Capa_x0020_1">
  <metadata id="CorelCorpID_0Corel-Layer"/>
  <g id="_2518390984432">
   <path class="fil0" d="M0 1.33l0 -0.77c0,-0.02 0,-0.04 0,-0.05l0 0 0 0c0,-0.01 0,-0.01 0,-0.02l0 0 0 0c0.01,-0.01 0.01,-0.02 0.01,-0.03l0 0 0 0c0,0 0,0 0,-0.01l0 0c0,0 0,-0.01 0,-0.01l0 0 0 0c0.01,-0.01 0.01,-0.02 0.01,-0.03l0 0 0 0c0,0 0,-0.01 0,-0.01l0 0 0 0c0.01,-0.01 0.01,-0.02 0.01,-0.03l0 0 0 0c0.01,-0.01 0.01,-0.01 0.01,-0.02l0 0 0 0c0.01,-0.03 0.03,-0.05 0.04,-0.08l0 0 0 0c0,0 0,0 0.01,-0.01l0 0 0 0c0,-0.01 0.01,-0.01 0.01,-0.02l0 0 0 0c0,0 0.01,-0.01 0.01,-0.01l0 0 0 0c0.01,-0.02 0.02,-0.03 0.03,-0.04l0 0 0 0c0.04,-0.04 0.08,-0.08 0.13,-0.11l0 0 0 0c0.08,-0.05 0.18,-0.08 0.28,-0.08l0.78 0c0.31,0 0.55,0.25 0.56,0.55l0 0.78c0,0.11 -0.03,0.21 -0.09,0.29l0 0 0 0c-0.03,0.05 -0.06,0.09 -0.1,0.12l0 0 0 0c-0.01,0.02 -0.03,0.03 -0.04,0.04l0 0 0 0c-0.01,0 -0.01,0 -0.01,0.01l0 0 0 0c-0.01,0 -0.02,0.01 -0.02,0.01l0 0 0 0c-0.01,0 -0.01,0.01 -0.02,0.01l0 0 0 0c-0.02,0.01 -0.05,0.02 -0.07,0.04l0 0 0 0c-0.01,0 -0.02,0 -0.03,0l0 0 0 0c0,0.01 -0.01,0.01 -0.02,0.01l0 0 0 0c0,0 -0.01,0.01 -0.01,0.01l0 0 0 0c-0.01,0 -0.02,0 -0.03,0l0 0 0 0c0,0 -0.01,0.01 -0.01,0.01l0 0c-0.01,0 -0.01,0 -0.02,0l0 0 0 0c-0.01,0 -0.02,0 -0.03,0l0 0 0 0c0,0 0,0 -0.01,0l0 0 0 0c-0.02,0.01 -0.04,0.01 -0.05,0.01l-0.77 0c-0.31,0 -0.56,-0.25 -0.56,-0.56zm1.7 0c0,0.2 -0.17,0.37 -0.37,0.37l-0.77 0c-0.2,0 -0.37,-0.17 -0.37,-0.37l0 -0.77c0,-0.2 0.17,-0.37 0.37,-0.37l0 0 0.77 0 0 0c0.2,0 0.37,0.17 0.37,0.37l0 0 0 0.77 0 0 0 0z"/>
   <path class="fil0" d="M0.94 1.24c-0.16,0 -0.29,-0.13 -0.29,-0.3 0,-0.16 0.13,-0.29 0.29,-0.29 0.17,0 0.3,0.13 0.3,0.29 0,0.17 -0.13,0.3 -0.3,0.3zm0 -0.78c-0.27,0 -0.48,0.21 -0.48,0.48 0,0.27 0.21,0.49 0.48,0.49 0.27,0 0.49,-0.22 0.49,-0.49 0,-0.27 -0.22,-0.48 -0.49,-0.48z"/>
   <path class="fil0" d="M1.43 0.34c0.07,0 0.12,0.05 0.12,0.12 0,0.06 -0.05,0.12 -0.12,0.12 -0.06,0 -0.11,-0.06 -0.11,-0.12 0,-0.07 0.05,-0.12 0.11,-0.12z"/>
  </g>
 </g>
</svg>
