<?xml version="1.0" encoding="UTF-8"?>
<!DOCTYPE svg PUBLIC "-//W3C//DTD SVG 1.1//EN" "http://www.w3.org/Graphics/SVG/1.1/DTD/svg11.dtd">
<!-- Creator: CorelDRAW X8 -->
<svg xmlns="http://www.w3.org/2000/svg" xml:space="preserve" width="582px" height="236px" version="1.1" style="shape-rendering:geometricPrecision; text-rendering:geometricPrecision; image-rendering:optimizeQuality; fill-rule:evenodd; clip-rule:evenodd"
viewBox="0 0 582 236"
 xmlns:xlink="http://www.w3.org/1999/xlink">
 <defs>
  <style type="text/css">
   <![CDATA[
    .fil0 {fill:#006FB9}
   ]]>
  </style>
 </defs>
 <g id="Capa_x0020_1">
  <metadata id="CorelCorpID_0Corel-Layer"/>
  <g id="_949236992">
   <path class="fil0" d="M268 8c-1,0 1,0 -1,0 -2,1 0,0 -1,1 0,0 -2,0 -2,0l-21 4 0 52 -29 0 0 16 0 17 1 0 28 0c0,3 0,13 0,17 -1,6 0,64 0,72 1,11 2,21 7,29 3,7 11,15 19,17 1,0 2,0 2,0 2,1 1,0 1,1 11,1 17,2 28,2 10,-1 18,-2 26,-4 1,-5 -2,-28 -2,-35 -5,0 -11,2 -16,2 -23,1 -22,-7 -23,-30 0,-24 1,-48 0,-71l40 0 0 -33c-3,0 -38,1 -40,0l0 -61 -17 4z"/>
   <path class="fil0" d="M100 113l-1 2c0,-2 0,-1 1,-3 0,-4 2,-13 2,-18 1,-6 2,-14 2,-19l0 -10 -41 0 0 5 0 74 0 88 42 0 0 -43c0,-3 0,-1 1,-2 0,-7 1,-16 2,-23 1,-7 4,-13 5,-19 0,-1 0,-1 0,-2 0,0 0,0 0,0l1 -1c5,-15 11,-28 20,-37 5,-4 13,-9 21,-5 13,5 10,34 10,47 0,14 -1,78 0,86l42 0c1,-8 0,-74 0,-83 0,-26 3,-54 -10,-72 -14,-19 -42,-21 -61,-11 -19,9 -28,27 -36,46z"/>
   <path class="fil0" d="M43 232l0 -169c-6,0 -38,-1 -42,0 0,7 -1,166 0,169l42 0z"/>
   <path class="fil0" d="M43 33c0,-1 0,-1 0,-2 1,-2 0,0 1,-1 1,-5 1,-9 -1,-14 0,0 0,0 -1,-1 0,-1 1,1 0,-1 -4,-7 -11,-15 -23,-14 -11,1 -20,9 -19,20 1,22 32,33 43,13z"/>
   <path class="fil0" d="M413 95c8,2 13,10 12,18 -1,19 -38,23 -54,22 0,-9 3,-19 7,-25 7,-13 21,-20 35,-15zm26 103c-1,1 0,0 -1,1 0,0 -1,0 -1,0 -1,0 -1,0 -2,0 -3,0 -7,2 -11,2 -17,2 -42,4 -49,-15 -1,-4 -4,-16 -3,-22 14,0 29,-2 42,-5 3,0 11,-3 13,-2 1,-2 1,-2 3,-2 6,-1 17,-7 21,-10 4,-4 11,-11 13,-18 0,-1 0,-1 1,-2 1,-2 0,0 0,-1 2,-11 3,-18 -1,-28 -12,-35 -60,-41 -91,-29 -8,4 -19,12 -24,17 -1,2 -3,3 -4,5 -2,3 -4,6 -6,10 -4,7 -7,15 -9,24 -7,29 -2,81 24,100 29,20 77,14 108,2l-6 -33c-5,1 -12,5 -17,6z"/>
   <path class="fil0" d="M518 107c-1,2 0,2 -1,3l-1 2 -1 2c0,-1 0,-1 0,-2 1,-2 1,-1 1,-2 0,-6 2,-15 3,-22 0,-8 1,-15 1,-23l-41 0c0,14 0,28 0,42l0 125 42 0 1 -11c0,-1 0,-2 0,-3 0,-1 -1,0 0,-1 -1,-7 0,-34 1,-42 1,-21 6,-49 21,-63 9,-9 18,-10 34,-9l4 -41c-37,-6 -54,19 -64,45z"/>
  </g>
 </g>
</svg>
