<?xml version="1.0" encoding="UTF-8"?>
<!DOCTYPE svg PUBLIC "-//W3C//DTD SVG 1.1//EN" "http://www.w3.org/Graphics/SVG/1.1/DTD/svg11.dtd">
<!-- Creator: CorelDRAW 2017 -->
<svg xmlns="http://www.w3.org/2000/svg" xml:space="preserve" width="99px" height="30px" version="1.1" style="shape-rendering:geometricPrecision; text-rendering:geometricPrecision; image-rendering:optimizeQuality; fill-rule:evenodd; clip-rule:evenodd"
viewBox="0 0 93.74 28.26"
 xmlns:xlink="http://www.w3.org/1999/xlink">
 <defs>
  <style type="text/css">
   <![CDATA[
    .fil1 {fill:white}
    .fil0 {fill:white}
   ]]>
  </style>
 </defs>
 <g id="Capa_x0020_1">
  <metadata id="CorelCorpID_0Corel-Layer"/>
  <path class="fil0" d="M79.62 0c7.8,0 14.12,6.33 14.12,14.13 0,7.8 -6.32,14.13 -14.12,14.13 -4.62,0 -8.72,-2.22 -11.3,-5.64l5.23 -3.49 5.49 -10.7 2.35 0 5.28 0c0.63,0 1.15,0.23 1.54,0.71 0.39,0.47 0.58,1.03 0.58,1.68 0,0.46 -0.11,0.86 -0.32,1.2l-8.91 0 -5.45 10.67 2.05 -0.62 1.5 0.63 3.65 -7.11 4.97 0 -1.78 3.54 3.59 0 4.33 -8.52c0.1,-0.2 0.07,-0.48 0.07,-0.77 0,-1.2 -0.5,-2.34 -1.5,-3.39 -1,-1.06 -2.1,-1.59 -3.31,-1.59l-4.42 0 -2.38 0 -0.03 0 -5.36 3.57 -7.24 14.09 2.8 -5.45 -0.28 -3.82 -0.43 -5.95 -1.89 -0.9 -1 0.55c2.46,-4.16 6.99,-6.95 12.17,-6.95zm-11.49 22.35c-1.66,-2.32 -2.64,-5.15 -2.64,-8.22 0,-2.18 0.49,-4.23 1.37,-6.07l0.16 1.8 0.8 9.02 0.31 3.47z"/>
  <path class="fil1" d="M31.28 17.23c-0.31,0.37 -0.67,0.71 -1.08,0.95 -0.75,0.44 -1.61,0.29 -2.01,-0.44 -0.39,0.33 -0.82,0.62 -1.25,0.9 0.45,1.44 0.05,3.5 -1.65,3.8 -0.32,0.06 -0.84,0 -1.15,-0.1 -0.8,-0.28 -1.01,-0.95 -0.84,-1.73 0.21,-0.96 1.23,-1.36 2.02,-1.79 -0.12,-0.12 -0.25,-0.24 -0.4,-0.34 -0.74,-0.55 -1.49,-1.08 -1.99,-1.88 -0.99,-1.58 -0.62,-3.86 1.02,-4.85 1.33,-0.8 3.34,-0.66 3.97,0.96 0.49,1.27 -0.4,2.59 -1.72,2.76 -0.1,0.01 -0.21,-0.01 -0.29,-0.08 -0.28,-0.22 -0.22,-0.74 0.17,-0.8 0.91,-0.16 1.17,-1.14 0.67,-1.85 -0.37,-0.51 -1.03,-0.35 -1.51,-0.11 -0.9,0.44 -1.16,1.42 -0.95,2.35 0.03,0.14 0.08,0.28 0.14,0.41 0.25,0.49 0.69,0.9 1.09,1.28 0.37,0.35 0.76,0.72 1.04,1.15 0.02,0.04 0.05,0.08 0.07,0.12 0.46,-0.35 0.9,-0.71 1.36,-1.05 -0.02,-0.69 0.22,-1.43 0.57,-2.01 0.44,-0.75 1.17,-1.45 2.05,-1.61 0.45,-0.08 0.9,0 1.31,0.21 0.02,0.01 0.04,0.02 0.05,0.03 0.41,-0.37 1.16,-0.17 1.18,0.49 0.01,0.32 -0.02,0.66 -0.03,0.97 -0.01,0.49 -0.02,0.97 -0.01,1.45 0.02,0.47 0.08,2.09 0.61,2.31 0.06,0.03 0.12,0.03 0.19,0.02 0.56,-0.09 1.09,-1.3 1.4,-1.73 0.2,-0.28 0.4,-0.55 0.65,-0.78 0.03,-0.75 0.09,-1.5 0.15,-2.24 0.14,-1.94 0.31,-3.98 1.1,-5.79 0.63,-1.43 1.7,-3.18 3.21,-3.8 1.45,-0.61 2.84,0.18 3.05,1.75 0.23,1.7 -0.76,3.43 -1.7,4.78 -1.21,1.74 -2.6,3.35 -3.94,4.99 -0.01,0.72 0.02,1.45 0.09,2.16 0.06,0.56 0.2,1.93 0.69,2.27 0.67,0.46 1.48,-0.56 1.88,-0.98 0.97,-1.03 1.82,-2.17 2.54,-3.38 0.17,-1.19 0.74,-2.32 1.91,-2.79 0.84,-0.33 1.88,-0.31 2.65,0.18 0.18,-2.49 0.78,-5.01 1.67,-7.33 0.45,-1.17 1.2,-2.52 2.46,-2.95 1.16,-0.4 2.35,0.2 2.61,1.42 0.34,1.67 -0.84,3.67 -1.67,5.06 -0.89,1.5 -1.99,2.87 -3.1,4.22 -0.07,0.79 -0.08,1.58 -0.02,2.37 0.06,0.76 0.17,1.52 0.37,2.25 0.06,0.22 0.22,0.8 0.45,0.89 0.19,0.07 0.47,-0.15 0.6,-0.25 0.79,-0.66 1.44,-1.46 2.01,-2.32 0.11,-0.59 0.27,-1.17 0.47,-1.73 0.1,-0.29 0.31,-0.5 0.6,-0.58 0.09,-0.02 0.18,-0.04 0.28,-0.03 -0.22,-0.47 -0.36,-0.97 -0.45,-1.47 -0.26,-1.53 0.44,-2.6 1.83,-3.22 1.17,-0.51 2.34,-0.31 3.01,0.84 0.76,1.27 0.57,3.14 0.25,4.58 0.83,-0.1 1.63,-0.31 2.45,-0.48 0.65,-0.14 0.89,0.76 0.28,1 -0.98,0.38 -2.05,0.69 -3.1,0.8 -0.44,1.32 -1.1,2.69 -1.96,3.78 -0.92,1.17 -2.52,1.03 -3.3,-0.22 -0.25,-0.41 -0.39,-0.87 -0.45,-1.34 -0.47,0.74 -1.05,1.45 -1.74,1.97 -0.44,0.33 -0.96,0.53 -1.51,0.36 -0.84,-0.27 -1.35,-1.27 -1.57,-2.07 -0.26,-0.96 -0.41,-1.95 -0.48,-2.95 -0.4,0.51 -0.79,1.04 -1.16,1.57 -0.33,0.49 -0.66,0.96 -1.2,1.24 -1.21,0.65 -1.93,-0.18 -2.16,-1.22 -0.41,0.67 -0.85,1.33 -1.32,1.95 -0.5,0.66 -1.09,1.35 -1.74,1.87 -0.51,0.41 -1.19,0.81 -1.87,0.71 -0.76,-0.11 -1.22,-0.78 -1.51,-1.43 -0.44,-0.97 -0.61,-2.02 -0.66,-3.08 -0.16,0.28 -0.33,0.56 -0.51,0.84 -0.59,0.91 -1.52,2.13 -2.76,1.79 -1.1,-0.3 -1.28,-1.67 -1.38,-2.62 -0.01,-0.13 -0.02,-0.26 -0.03,-0.38zm-14.13 0.58c-0.35,0.59 -0.7,1.17 -1.07,1.74 -0.38,0.58 -0.89,1.54 -1.7,1.49 -0.32,-0.02 -0.61,-0.13 -0.82,-0.37 -0.38,-0.43 -0.41,-1.13 -0.41,-1.68 -0.15,0.24 -0.31,0.48 -0.47,0.71 -0.63,0.92 -1.86,2.47 -3.11,2.38 -0.72,-0.05 -1.21,-0.61 -1.54,-1.2 -1,-1.77 -0.64,-4.09 -0.38,-6.01 0.13,-0.94 0.4,-1.89 0.6,-2.82 0.06,-0.29 0.11,-0.59 0.16,-0.88 -1.76,0.64 -3.62,1.19 -5.5,0.88 -1.54,-0.25 -3.32,-1.04 -2.83,-2.93 0.08,-0.29 0.26,-0.51 0.55,-0.6 0.23,-0.07 0.5,-0.04 0.71,0.07 0.37,0.2 0.54,0.58 0.45,0.99 -0.02,0.08 -0.02,0.17 0,0.26 0.16,0.58 1.28,0.99 1.81,1.09 0.81,0.15 1.67,0.06 2.47,-0.09 0.83,-0.17 1.63,-0.43 2.42,-0.71 0.01,-0.72 -0.11,-1.43 -0.5,-2.04 -0.16,-0.26 -0.2,-0.56 -0.05,-0.83 0.14,-0.27 0.42,-0.44 0.72,-0.48 0.34,-0.04 0.65,0.11 0.86,0.39 0.5,0.68 0.74,1.44 0.81,2.26 2.22,-0.86 4.47,-1.72 6.86,-1.93 1.92,-0.17 4.95,-0.03 6.33,1.51 0.35,0.39 0.51,0.93 0.46,1.45 -0.04,0.49 -0.26,0.98 -0.66,1.27 -0.42,0.29 -0.91,0.29 -1.37,0.12 -0.8,-0.31 -0.75,-1.57 0.12,-1.64 0.22,-0.45 0.18,-0.79 -0.34,-1l-0.02 0 -0.01 -0.01c-0.33,-0.18 -0.68,-0.33 -1.05,-0.43l0 0c-0.63,-0.2 -1.29,-0.31 -1.96,-0.35 -1.09,-0.06 -2.2,0.07 -3.28,0.3 -1.75,0.38 -3.42,1.05 -5.08,1.7 -0.02,0.34 -0.06,0.68 -0.11,1.02 -0.3,1.83 -0.74,3.64 -0.87,5.5 -0.05,0.84 -0.08,1.72 0.16,2.53 0.08,0.24 0.23,0.83 0.47,0.96 0.22,0.11 0.62,-0.08 0.81,-0.17 1.17,-0.59 1.81,-1.94 2.36,-3.06 0.02,-0.89 0.06,-1.79 0.14,-2.68 0.1,-1.13 1.77,-1.15 1.79,0.01 0.02,1.03 -0.01,2.05 -0.02,3.07 0,0.55 -0.1,1.16 -0.06,1.72 0.54,-0.45 0.91,-1.21 1.26,-1.77 0.35,-0.57 0.69,-1.15 1.03,-1.72 0.01,-0.54 0.01,-1.08 -0.03,-1.61 -0.08,-1.02 1.39,-1.15 1.69,-0.26 0.58,1.74 0.11,3.44 0.02,5.2 -0.01,0.17 -0.09,1.01 0.16,1.04 0.21,0.03 0.61,-0.54 0.73,-0.68 0.65,-0.78 1.11,-1.71 1.69,-2.54 0.11,-0.16 0.32,-0.19 0.47,-0.06 0.1,0.1 0.13,0.25 0.06,0.38 -0.64,1.26 -1.21,2.68 -2.09,3.8 -0.49,0.63 -1.19,1.09 -1.98,0.64 -0.95,-0.55 -1.02,-1.83 -0.95,-2.8 0.03,-0.37 0.06,-0.75 0.09,-1.13zm8.54 1.59c-0.29,0.16 -0.58,0.33 -0.84,0.53 -0.3,0.23 -0.8,0.67 -0.77,1.09 0.03,0.53 0.67,0.62 1.06,0.4 0.33,-0.19 0.54,-0.82 0.6,-1.17 0.04,-0.27 0.04,-0.58 -0.05,-0.85zm5.59 -3.3c0.03,-0.59 0.14,-1.17 0.3,-1.73 0,0 -0.01,0 -0.01,0 -0.1,-0.03 -0.21,-0.03 -0.31,-0.02 -0.9,0.13 -1.67,1.61 -1.54,2.44 0.01,0.1 0.06,0.36 0.17,0.4 0.26,0.08 0.89,-0.55 1.05,-0.71 0.12,-0.12 0.23,-0.25 0.34,-0.38zm6.62 -1.63c1.57,-1.87 3.34,-3.89 4.18,-6.16 0.24,-0.65 0.5,-1.53 0.31,-2.22 -0.16,-0.6 -0.78,-0.86 -1.36,-0.78 -0.36,0.05 -0.8,0.6 -1,0.88 -0.78,1.06 -1.11,2.42 -1.42,3.69 -0.35,1.5 -0.6,3.05 -0.71,4.59zm11.83 -2.18c1.3,-1.64 2.53,-3.39 3.27,-5.37 0.2,-0.53 0.42,-1.12 0.44,-1.69 0.03,-0.63 -0.65,-1.3 -1.29,-1.17 -0.39,0.08 -0.66,0.36 -0.88,0.68 -0.58,0.84 -0.59,2.16 -0.76,3.15 -0.26,1.47 -0.57,2.93 -0.78,4.4zm-2.19 2.27c-0.1,-0.02 -0.19,-0.06 -0.27,-0.14 -0.27,-0.25 -0.62,-0.47 -0.99,-0.37 -0.87,0.21 -1.4,1.88 -1.41,2.67 0,0.1 0,0.21 0,0.32 0.01,0.11 0.02,0.35 0.12,0.43 0.09,0.08 0.3,0 0.39,-0.04 0.29,-0.14 0.66,-0.61 0.89,-0.85 0.46,-0.46 0.87,-0.97 1.28,-1.48 -0.01,-0.18 -0.01,-0.36 -0.01,-0.54zm10.27 0.64c0.24,-0.88 0.37,-1.8 0.34,-2.7 -0.02,-0.67 -0.16,-1.67 -0.82,-2.01 -0.31,-0.15 -0.83,-0.03 -1.13,0.08 -0.29,0.11 -0.66,0.3 -0.87,0.53 -0.14,0.14 -0.23,0.31 -0.3,0.51 -0.26,0.83 0.2,1.92 0.67,2.6 0.49,0.72 1.29,0.95 2.11,0.99zm-0.45 1.29c-0.33,-0.02 -0.67,-0.08 -0.99,-0.18 -0.47,-0.14 -0.88,-0.39 -1.23,-0.73 -0.22,0.8 -0.55,2 -0.33,2.78 0.06,0.2 0.19,0.58 0.44,0.62 0.31,0.05 0.74,-0.38 0.93,-0.58 0.22,-0.24 0.43,-0.52 0.6,-0.8 0.23,-0.35 0.42,-0.72 0.58,-1.11z"/>
 </g>
</svg>
