<?xml version="1.0" encoding="UTF-8"?>
<!DOCTYPE svg PUBLIC "-//W3C//DTD SVG 1.1//EN" "http://www.w3.org/Graphics/SVG/1.1/DTD/svg11.dtd">
<!-- Creator: CorelDRAW 2017 -->
<svg xmlns="http://www.w3.org/2000/svg" xml:space="preserve" width="70.0588mm" height="23.6851mm" version="1.1" style="shape-rendering:geometricPrecision; text-rendering:geometricPrecision; image-rendering:optimizeQuality; fill-rule:evenodd; clip-rule:evenodd"
viewBox="0 0 10359.56 3502.3"
 xmlns:xlink="http://www.w3.org/1999/xlink">
 <defs>
  <style type="text/css">
   <![CDATA[
    .fil2 {fill:#450000}
    .fil6 {fill:#CCCCCC}
    .fil4 {fill:#FC9700}
    .fil1 {fill:white}
    .fil5 {fill:white}
    .fil8 {fill:#176E60;fill-rule:nonzero}
    .fil11 {fill:#2E0404;fill-rule:nonzero}
    .fil3 {fill:#450000;fill-rule:nonzero}
    .fil7 {fill:#99DBDE;fill-rule:nonzero}
    .fil0 {fill:black;fill-opacity:0.109804}
    .fil9 {fill:url(#id4);fill-rule:nonzero}
    .fil10 {fill:url(#id5);fill-rule:nonzero}
   ]]>
  </style>
     <mask id="id0">
  <linearGradient id="id1" gradientUnits="userSpaceOnUse" x1="8674.64" y1="879.1" x2="8876.67" y2="989.29">
   <stop offset="0" style="stop-opacity:1; stop-color:white"/>
   <stop offset="1" style="stop-opacity:0; stop-color:white"/>
  </linearGradient>
      <rect style="fill:url(#id1)" x="8547.24" y="758.98" width="451.39" height="382.38"/>
     </mask>
     <mask id="id2">
  <linearGradient id="id3" gradientUnits="userSpaceOnUse" x1="7642.71" y1="2161.86" x2="7447.98" y2="2065.56">
   <stop offset="0" style="stop-opacity:1; stop-color:white"/>
   <stop offset="1" style="stop-opacity:0; stop-color:white"/>
  </linearGradient>
      <rect style="fill:url(#id3)" x="7345.92" y="1657.23" width="345.93" height="1011.77"/>
     </mask>
  <linearGradient id="id4" gradientUnits="userSpaceOnUse" x1="7487.83" y1="2321.67" x2="8638.05" y2="1106.32">
   <stop offset="0" style="stop-opacity:1; stop-color:#450000"/>
   <stop offset="0.309804" style="stop-opacity:1; stop-color:#6F6D6F"/>
   <stop offset="0.490196" style="stop-opacity:1; stop-color:#450000"/>
   <stop offset="1" style="stop-opacity:1; stop-color:#99DBDE"/>
  </linearGradient>
  <linearGradient id="id5" gradientUnits="userSpaceOnUse" x1="7463.79" y1="2669.02" x2="7463.79" y2="924.51">
   <stop offset="0" style="stop-opacity:1; stop-color:#450000"/>
   <stop offset="0.709804" style="stop-opacity:1; stop-color:#3A0202"/>
   <stop offset="1" style="stop-opacity:1; stop-color:#2E0404"/>
  </linearGradient>
 </defs>
 <g id="Capa_x0020_1">
  <metadata id="CorelCorpID_0Corel-Layer"/>
  <g id="_3172218515136">
   <path class="fil0" d="M8608.42 0c967.13,0 1751.14,784.02 1751.14,1751.14 0,967.14 -784.02,1751.16 -1751.14,1751.16 -967.14,0 -1751.16,-784.02 -1751.16,-1751.16 0,-967.13 784.02,-1751.14 1751.16,-1751.14z"/>
   <path class="fil1" d="M2490.65 2088.83c-1.49,10.44 -4.73,20.79 -9.74,30.61 -71.38,139.74 -132.86,292.23 -230.07,416.5 -72.83,93.13 -178.85,148.86 -292,84.18 -89.22,-51.01 -123.54,-143.86 -132.61,-239.93 -53.66,83.04 -116.49,180.71 -229.11,173.67 -50.76,-3.16 -96.62,-22.71 -130.55,-61.2 -14.95,-16.95 -26.14,-35.7 -34.53,-55.61 -85.2,111.91 -210.08,237.52 -350.24,227.6 -98.85,-6.99 -167.91,-77.28 -214.12,-159.23 -115.96,-205.58 -78.58,-460.14 -48.55,-682.89 13.35,-99 40.86,-195.81 61.94,-293.76 -167.37,54.67 -340.71,90.94 -517.74,62.12 -30.06,-4.89 -59.95,-11.31 -89.27,-19.61 -89.86,-25.43 -181.89,-70.86 -233.89,-151.79 -43.03,-66.98 -49.15,-143.86 -29.47,-219.85 13.26,-51.25 48.8,-91.68 99.71,-107.74 41.12,-12.97 86.81,-7.73 124.74,12.39 63.6,33.77 95.33,102.37 79.57,173.11 6.02,12.85 38.95,31.97 50.01,37.6 27.96,14.24 63.89,27.16 94.86,33.03 78.09,14.8 163.13,5.38 240.49,-9.94 70.43,-13.96 139.4,-34.73 207.27,-58.23 -3.65,-49.73 -15.57,-98.54 -42.53,-141.41 -29.01,-46.15 -34.29,-102.07 -8.55,-150.96 55.01,-104.47 204.5,-114.47 274.87,-17.7 43.46,59.75 71.42,124.08 86.65,192.7 219.91,-84.08 441.98,-161.27 678.85,-182.23 228.18,-20.18 566.22,-0.22 729.09,181.95 57.21,64 77.6,157.21 59.28,240.3 163.51,-50.53 354.37,-1.35 422.89,174.63 18.79,48.26 23.1,97.18 15.64,143.17 91.22,-100.76 222.41,-159.05 356.23,-105.77 81.09,-34.36 188.74,12.27 192.04,121.9 1.05,35.07 -1.49,72.32 -2.6,107.52 -1.6,50.42 -2.54,100.94 -1.12,151.39 0.9,31.72 6.33,134.99 23.94,179.5 31.2,-32.32 80.59,-125.66 97.67,-149.73 18.65,-26.31 37.77,-51.49 59.58,-74.66 3.33,-72.47 9.35,-144.73 14.52,-217.1 15.45,-216.02 35.24,-439.22 123.5,-639.71 74.75,-169.81 198.34,-365.71 375.96,-440.1 193.47,-81.02 385.5,28.58 412.98,236.74 26.53,200.82 -82.23,397.38 -193.04,556.39 -126.41,181.39 -270.11,349.46 -410.22,520.19 -0.09,67.65 2.59,135.51 9.51,202.76 3.83,37.2 18.62,172.71 46.82,197.3 21.94,15.19 108.94,-84.42 120.53,-96.69 97.53,-103.21 183.71,-218.08 257.44,-339.49 23.9,-145.18 98.33,-277.8 241.16,-335.06 78.87,-31.61 170.24,-38 252.47,-14.89 25.94,-243.75 87.78,-488.28 174.66,-714.96 55.41,-144.59 146.33,-299.66 301.21,-352.46 159.68,-54.46 325.49,30.71 360.17,198.8 41.05,199.03 -87.02,420.51 -185.32,585.74 -94.06,158.1 -208.13,302.57 -325.25,443.99 -5.23,74.94 -5.83,150.06 -0.06,225.03 5.91,76.86 16.72,154.07 37.46,228.44 2.14,7.64 6.52,23.27 11.5,37.19 0.15,-0.12 0.3,-0.24 0.43,-0.35 76.7,-63.91 140.51,-140.82 195.81,-223.56 12.02,-61.88 29.54,-123.06 50.45,-182.43 13.32,-37.87 38.64,-66.88 69.75,-85.13 -11.52,-34.66 -20.13,-70.31 -26.13,-106.05 -32.28,-192.53 57.62,-334.24 232.39,-411.76 153.46,-68.06 312.89,-35.59 401.32,114.39 74.85,126.95 74.42,295.19 50.5,446.3 57.15,-11.03 113.76,-24.8 170.86,-36.91 48.69,-10.34 97.8,8.38 124.79,50.76 40.83,64.15 11.43,148.33 -58.93,175.68 -97.42,37.88 -202.89,69.13 -307.76,84.54 -48.87,136.26 -118.98,274.24 -206.87,386.12 -125.29,159.49 -350.02,141.19 -455.44,-29.57 -7.23,-11.73 -13.74,-23.78 -19.55,-36.07 -37.14,45.01 -78.3,86.36 -123.84,120.85 -63.92,48.44 -140.28,73.17 -219.07,47.98 -111.52,-35.64 -179.19,-156.98 -208.69,-263.68 -15.32,-55.39 -27.19,-111.67 -36.08,-168.44 -9.27,13.01 -18.44,26.1 -27.5,39.27 -42.28,61.48 -83.1,116.24 -150.52,152.29 -64.12,34.28 -137.71,45.54 -203.69,9.12 -27.67,-15.26 -50.1,-36.75 -68.01,-61.96 -25.88,38.74 -52.77,76.73 -80.75,113.59 -57.18,75.37 -123.25,152.32 -197.39,211.42 -69.38,55.29 -155.84,101.63 -247.49,88.51 -104.09,-14.88 -169.43,-98.33 -209.89,-188.67 -25.3,-56.49 -43,-114.91 -55.02,-174.5 -78,105.02 -184.94,198.87 -325.15,160.76 -118.92,-32.32 -161.58,-140.83 -181.23,-249.9 -11.8,8.8 -24.07,16.99 -36.82,24.44 -88.07,51.47 -189.1,44.52 -256.27,-14.76 -17.39,12.88 -35.1,25.34 -52.98,37.53 36.61,182.62 -32.8,403.85 -236.92,440.06 -45.32,8.04 -111.4,1.29 -154.02,-13.22 -116.37,-39.64 -156.39,-142.12 -131.12,-257.74 5.69,-26.03 15.91,-50.53 30.18,-73 34.76,-54.83 82.98,-87.29 134.8,-115.6 -62.49,-46.18 -121.21,-92.66 -168.81,-154.09zm-60.48 -102.86c-55.01,-131.22 -45,-284.66 26.04,-404.16 -22.4,-2.04 -44.88,-7.39 -66.87,-15.73 -130.7,-49.6 -130.48,-229.17 -23.67,-281.78 -0.65,-0.27 -1.24,-0.52 -1.74,-0.71 -3.21,-1.3 -5.89,-2.56 -8.92,-4.21 -31.84,-17.39 -65.34,-31.23 -100.15,-41.42 -0.56,-0.16 -1.05,-0.31 -1.61,-0.49 -62.8,-19.78 -128.35,-29.99 -193.99,-33.79 -111.94,-6.48 -225.18,6.64 -334.55,30.21 -170.95,36.83 -335.15,100.71 -497.55,165.05 -2.56,25.11 -5.93,50.13 -9.92,75.03 -31.14,193.93 -78.58,386.65 -91.84,582.99 -5.49,81.17 -8.9,169.47 14.73,248.18 3.36,11.19 12.05,41.26 20.05,59.18 10.53,-3.7 23.13,-9.79 29.09,-12.78 103.42,-51.99 167.73,-182.89 217.99,-286.05 1.95,-92.66 6.48,-185.31 14.91,-277.61 5.19,-56.75 37.07,-105.68 88.38,-131.1 44.8,-22.21 98.76,-23.11 143.79,-0.95 53.74,26.45 83.5,79.21 84.39,138.38 1.55,103.54 -1.05,207.06 -1.94,310.59 4.17,-7.14 8.16,-13.88 11.95,-20.04 34.45,-55.95 67.9,-112.51 101.51,-168.96 1.24,-49.97 0.56,-99.9 -3.22,-149.79 -13.86,-182.25 247.13,-215.99 302.26,-51.93 64.49,191.88 19.96,362.56 6.82,553.79 59.65,-76.77 105.12,-167.31 160.93,-246.96 26.11,-37.28 73.3,-50.13 113.16,-34.94zm590.32 -91.03c-40.58,32.5 -90.64,54.82 -146.51,62.03 -27.55,3.56 -55.18,-3.64 -77.25,-20.58 -73.33,-56.35 -49.36,-181.48 46,-197.3 51.95,-8.62 57.65,-61.41 30.67,-99.62 -16.21,-22.95 -64.55,-1.12 -82.53,7.67 -69.4,33.94 -84.71,111.36 -68.6,181.5 2.41,10.48 6.15,20.54 10.88,30.18 21.74,44.32 66.98,85.75 102.5,119.39 31.2,29.54 62.43,59.12 89.71,92.11 23.23,-18.42 46.42,-36.91 69.99,-54.92 2.45,-40.63 11.45,-81.48 25.12,-120.45zm-299.91 583.12c9.33,-7.82 17.82,-25.98 24.09,-44.02 -16.27,13.88 -37.84,34.31 -42.79,47.23 5.96,0.78 14.05,-0.92 18.71,-3.21zm628.16 -540.71c1.51,-18.01 3.58,-35.95 6.2,-53.78 -20.67,27.76 -37.47,63.66 -45.84,95.29 14.14,-13.81 28.27,-28.94 39.64,-41.51zm853.33 -347.39c123.06,-150.06 241.35,-310.76 304.8,-482.87 20.14,-54.61 47.5,-140.96 31.78,-199.06 -8.64,-31.91 -45.69,-42.19 -75.19,-38.49 -19.47,7.78 -55.45,53.09 -67.04,68.97 -77.45,106.1 -111.14,247.28 -141.08,373.24 -21.72,91.34 -39.7,184.47 -53.26,278.22zm1287.26 -282.03c74.44,-109.75 139.85,-225.23 186.35,-349.18 18.53,-49.4 41.36,-108.64 43.36,-161.71 1.05,-27.5 -35.49,-67.56 -62.96,-61.84 -24.49,5.09 -42.7,27.73 -56.15,47.13 -51.77,74.72 -55.72,222.84 -71.11,312.17 -12.26,71.23 -26.03,142.29 -39.48,213.43zm-402.96 528.04c-2.94,-2.28 -5.8,-4.7 -8.55,-7.28 -9.57,-8.92 -33.06,-28.91 -48.26,-25.11 -31.33,7.84 -63.78,73.22 -74.6,100.02 -13.4,33.17 -25.55,76.17 -28.18,113.58 16.81,-17.66 34.16,-37.75 42.75,-46.55 41.52,-42.45 79.42,-88.49 116.85,-134.66zm1114.88 -37.44c15.63,-72 23.45,-146.42 21.19,-219.47 -1.3,-42.16 -9.57,-138.17 -53.19,-160.32 -15.42,-5.87 -56.66,5.65 -71.52,11.08 -20.91,7.64 -53.01,23.08 -68.35,39.67 -58.81,63.63 4.81,197.92 44.82,255.77 30.67,44.32 77.1,64.71 127.05,73.27zm-209.29 402c32.61,-23.51 78.98,-86.5 94.1,-110.36 7.53,-11.89 14.67,-24.04 21.47,-36.41 -10.57,-2.48 -21.06,-5.32 -31.44,-8.56 -26.9,-8.37 -52.32,-19.37 -76.15,-32.81 -14.28,62.02 -24.8,130.67 -12.33,174.69 0.87,3.13 2.45,8.25 4.35,13.44z"/>
   <path class="fil2" d="M3409.69 2083.56c-33.49,39.53 -71.38,76.45 -115.41,102.18 -80.03,46.76 -172.93,30.54 -214.88,-48 -42.34,35.46 -88.16,66.96 -134.25,97.28 47.95,153.43 5.55,373.68 -176.44,405.98 -34.81,6.17 -90.27,0.28 -122.97,-10.85 -85.91,-29.26 -108.64,-101.07 -90.23,-185.27 22.42,-102.55 131.26,-144.94 216.24,-190.62 -12.79,-13.81 -26.93,-26.2 -42.25,-37.41 -80.19,-58.66 -159.83,-115.04 -213.66,-200.85 -106.21,-169.38 -66.51,-412.63 109.31,-518.77 142.29,-85.91 357.08,-70.76 424.56,102.62 53,136.1 -42.63,276.96 -183.73,295.19 -11.19,1.43 -22.2,-1.27 -31.19,-8.18 -30.3,-23.27 -23.11,-79.3 18.17,-86.15 97.99,-16.25 125.17,-121.24 71.45,-197.27 -38.98,-55.18 -109.84,-37.41 -160.97,-12.41 -96.22,47.04 -124.83,152.5 -102.04,251.6 3.49,15.17 8.83,29.75 15.67,43.71 25.94,52.85 73.39,97.21 115.63,137.22 40,37.88 81.88,76.94 111.54,123.26 2.84,4.27 5.53,8.64 8.07,13.07 48.58,-37.31 95.66,-76.55 144.99,-112.9 -2.41,-74.14 24.06,-152.45 61.35,-215.19 47.35,-79.66 124.58,-154.83 218.91,-171.57 48.77,-8.67 96.35,-0.41 140.36,22 2.01,1.02 3.95,2.16 5.75,3.4 43.99,-39.7 123.59,-18.22 125.72,52.72 1.02,33.7 -1.52,69.82 -2.59,103.66 -1.64,51.68 -2.59,103.43 -1.12,155.12 1.42,50.6 8.21,223.64 64.56,247.05 6.74,2.81 13.78,3.13 20.94,1.98 59.44,-9.57 116.83,-138.81 149.5,-184.88 21.23,-29.94 43.24,-58.79 70.02,-83.87 2.94,-80 9.72,-159.73 15.42,-239.56 14.88,-207.77 33.54,-426.28 118.37,-619 67.58,-153.5 182.03,-340.26 342.92,-407.65 155.93,-65.3 304.76,19.47 326.92,187.29 24.13,182.74 -81.7,368.06 -182.37,512.5 -129.64,186.02 -277.85,358.11 -421.3,533.42 -0.77,77.23 1.79,154.79 9.7,231.62 6.15,59.81 20.76,205.85 73.42,242.28 71.94,49.79 158.37,-59.55 201.46,-105.15 103.43,-109.47 194.48,-231.56 271.89,-360.7 18.31,-127.51 78.99,-248.45 204.55,-298.79 89.62,-35.93 201.18,-33.79 283.81,18.84 18.82,-266.19 83.35,-536.31 178.42,-784.33 48.07,-125.41 128.07,-269.67 263.05,-315.69 124.15,-42.34 251.76,21.07 278.82,152.29 36.82,178.48 -89.65,392.99 -177.83,541.19 -95.73,160.93 -212.92,307.64 -332.37,451.39 -6.8,84.68 -8.06,169.61 -1.54,254.37 6.23,80.97 17.73,162.08 39.57,240.42 6.46,23.19 23.3,85.23 48.37,95.2 19.64,7.81 50.14,-15.82 63.72,-27.13 84.68,-70.58 154.58,-155.72 214.87,-247.61 11.45,-62.98 29.07,-125.3 50.32,-185.64 10.75,-30.54 33.46,-53.37 64.91,-61.97 9.45,-2.59 19.25,-3.74 29.04,-3.52 -23.2,-49.55 -38.64,-103.17 -47.63,-156.76 -27.55,-164.27 47.39,-278.36 196.1,-344.33 124.42,-55.18 250.02,-33.4 322.18,89 80.57,136.66 60.27,336.6 26.29,490.42 88.65,-11.08 174.41,-33.11 261.83,-51.65 69.76,-14.79 95.48,81.77 30.27,107.13 -104.51,40.65 -219.26,73.64 -331.51,85.72 -46.79,141.23 -118.16,288.17 -209.61,404.57 -98.45,125.32 -270.44,110.19 -353.16,-23.81 -26.97,-43.68 -41.67,-92.94 -48.19,-143.42 -50.82,79.21 -112.44,155.44 -186.08,211.23 -47.3,35.83 -103.51,57.08 -162.33,38.27 -89.17,-28.49 -144.05,-136.04 -167.51,-220.83 -28.49,-103.04 -44.51,-209.32 -51.41,-315.98 -42.76,54.9 -84.39,110.7 -123.84,168.08 -35.78,52.05 -71.41,102.06 -128.5,132.58 -130.3,69.68 -206.5,-19.08 -231.53,-130.91 -43.61,71.85 -90.64,142.34 -141.22,209.01 -53.93,71.07 -116.64,144.59 -186.57,200.33 -54.73,43.61 -126.87,85.94 -199.71,75.52 -80.91,-11.56 -130.7,-83.09 -161.72,-152.36 -46.83,-104.57 -65.48,-217.03 -70.4,-330.43 -17.79,30.39 -35.61,60.76 -54.73,90.45 -62.9,97.65 -162.14,227.79 -295.67,191.51 -117.85,-32.04 -136.22,-179.34 -147.17,-281.04 -1.45,-13.4 -2.54,-26.82 -3.36,-40.25zm-1511.79 62.59c-37.34,62.61 -75.19,124.89 -114.97,185.98 -40.22,61.78 -95.58,164.8 -181.92,159.4 -34.13,-2.13 -64.69,-14.21 -87.6,-40.18 -40.62,-46.05 -43.53,-120.11 -44.33,-179.72 -15.96,26.07 -32.61,51.72 -49.97,76.82 -67.77,97.93 -198.78,263.4 -332.91,253.89 -76.39,-5.4 -128.84,-65.06 -164.12,-127.61 -107.03,-189.78 -68.79,-438.02 -41.03,-643.85 13.59,-100.8 42.99,-201.63 63.72,-301.43 6.54,-31.42 12.44,-63.05 16.99,-94.84 -187.51,68.57 -387.45,127.36 -588.37,94.65 -164.68,-26.82 -354.81,-110.8 -302.2,-313.94 7.87,-30.36 27.71,-54.25 58.04,-63.82 25.24,-7.97 53.43,-4.35 76.66,7.98 39.13,20.79 57.77,61.42 47.76,104.96 -2.22,9.6 -2.16,19.19 0.49,28.7 17.24,61.97 136.56,105.43 193.84,116.3 86.5,16.4 178.55,6.94 264.26,-10.04 88.34,-17.51 174.29,-45.17 258.86,-75.84 0.81,-76.54 -11.98,-152.48 -53.35,-218.31 -17.14,-27.27 -21.5,-59.5 -6.17,-88.62 15.02,-28.52 45.35,-47.04 76.98,-50.82 36.67,-4.38 70.43,10.96 92.11,40.77 53.38,73.4 79.85,154.08 87.02,242.21 237.77,-92.06 478.34,-183.59 734.5,-206.26 205.38,-18.17 529.88,-3.22 677.02,161.37 37.78,42.26 54.18,99.58 49.24,155.59 -4.55,51.78 -27.9,104.34 -71.1,135.12 -44.07,31.41 -96.48,31.81 -145.83,13.09 -86.03,-32.63 -80.44,-167.67 12.66,-175.14 23.33,-47.97 19.52,-84.27 -36.98,-106.92l-1.15 -0.46 -1.08 -0.59c-35.77,-19.55 -73.43,-35.09 -112.53,-46.55l-0.4 -0.12c-67.75,-21.35 -138.35,-32.47 -209.16,-36.58 -117.63,-6.8 -236.37,6.74 -351.32,31.51 -187.23,40.35 -365.8,111.97 -543.36,182.29 -2.43,36.49 -6.85,72.87 -12.63,108.97 -31.5,196.12 -79.07,389.96 -92.48,588.67 -6.06,89.61 -8.89,183.43 17.21,270.36 7.69,25.61 24.68,89.27 50.25,102.81 23.29,12.35 66.22,-8.25 86.77,-18.57 124.34,-62.49 193.43,-206.71 252.12,-326.87 1.76,-95.76 6.21,-191.52 14.93,-286.93 11.08,-121.08 190.03,-122.81 191.89,1.6 1.66,109.51 -1.39,219.02 -2.08,328.54 -0.37,58.84 -10.81,123.28 -6.94,183.43 57.62,-47.58 97.68,-129.52 134.69,-189.63 37.44,-60.82 73.71,-122.33 110.28,-183.67 1.89,-57.57 1.46,-115.09 -2.91,-172.55 -8.3,-109.11 148.8,-122.42 180.77,-27.31 62.62,186.36 11.95,367.37 2.1,556.29 -0.95,18.17 -9.09,107.92 17.48,111.61 22.61,3.15 64.65,-57.82 77.74,-73.34 70.02,-83.13 118.52,-182.9 180.8,-271.77 11.71,-16.72 34.72,-19.78 50.02,-6.14 11.65,10.4 14.12,26.65 7.1,40.4 -68.91,134.89 -130.07,286.81 -223.65,406.45 -53.11,67.9 -127.21,116.79 -211.79,68.43 -101.54,-58.05 -109.28,-195.45 -101.73,-299.08 2.93,-40.25 6.34,-80.47 9.79,-120.68zm913.7 169.52c-30.9,17.2 -61.81,35.06 -89.79,56.46 -32.16,24.59 -86.27,71.85 -83.19,116.74 3.89,56.77 72.28,66.57 113.73,43.04 35.21,-19.99 57.95,-88.13 63.95,-125.5 4.63,-28.72 5.01,-62.11 -4.7,-90.75zm597.93 -352.65c3.73,-63.1 14.74,-125.17 32.65,-185.64 -0.61,-0.1 -1.2,-0.22 -1.8,-0.35 -10.76,-2.38 -21.69,-2.79 -32.62,-1.29 -96.38,13.35 -178.45,171.91 -165.53,261.27 1.55,10.74 6.55,37.65 19.16,41.92 27.84,9.43 94.77,-58.08 111.82,-75.9 12.45,-13.01 24.5,-26.42 36.32,-40.01zm708.18 -175.2c168.41,-200.2 358.01,-415.6 447.79,-659.11 25.63,-69.53 53.4,-163.34 33.46,-236.99 -17.32,-63.97 -84.03,-92.7 -146.02,-83.77 -37.99,5.47 -85.5,64.32 -106.97,93.73 -83.5,114.39 -119.15,259.94 -151.4,395.62 -38.08,160.14 -64.9,325.68 -76.86,490.51zm1265.84 -232.55c139.81,-176.29 271.24,-362.95 350.63,-574.56 21.43,-57.11 44.98,-119.85 47.3,-181.3 2.54,-67.49 -69.81,-139.57 -138.12,-125.35 -42.11,8.77 -71.11,38.58 -94.77,72.71 -62.19,89.79 -63.16,231.76 -81.31,337.14 -27.06,157.17 -61.26,313.41 -83.72,471.36zm-233.34 242.34c-10.79,-1.52 -21.1,-6.49 -29.77,-14.58 -28.33,-26.42 -65.68,-50.11 -106.02,-40.03 -93.13,23.3 -149.64,201.12 -150.61,285.77 -0.12,11.34 -0.31,22.68 0.21,34.02 0.56,12.26 2.59,38.33 12.75,46.92 9.7,8.21 31.94,-0.78 41.33,-5.03 31.35,-14.17 71.39,-65.09 96.1,-90.36 48.69,-49.79 92.49,-104.14 136.26,-158.24 -0.37,-19.49 -0.46,-38.98 -0.25,-58.48zm1098.85 68.37c25.43,-93.44 38.83,-192.17 35.83,-288.83 -2.2,-71.21 -16.47,-178.12 -87.89,-214.35 -32.87,-16.66 -88.06,-3.55 -120.68,8.35 -31.11,11.36 -70.06,31.35 -92.79,55.95 -14.65,15.85 -25.24,34.2 -31.84,54.74 -28.46,88.81 20.89,206.31 71.15,278.96 52.95,76.54 137.89,101.54 226.21,105.18zm-48.28 138.58c-35.93,-2.51 -71.76,-8.3 -106.11,-18.99 -50.56,-15.75 -94.64,-42.42 -131.87,-78.15 -23.67,84.86 -58.88,213.27 -35.28,296.67 6.2,21.88 20.21,62.11 47.01,66.45 33.36,5.4 79.48,-40.09 99.74,-62.16 23.63,-25.76 45.84,-55.21 64.56,-84.76 23.94,-37.77 44.24,-77.94 61.96,-119.06z"/>
   <path class="fil3" d="M3145.58 2012.21c-85.05,52.08 -160.05,119.09 -240.24,179.16 -5.56,-11.46 -11.46,-22.56 -18.41,-32.99 -69.78,-109.01 -215.95,-181.57 -245.8,-311.07 -25.7,-112.14 10.76,-224.64 113.18,-274.98 55.2,-26.73 139.22,-48.6 187.13,19.09 63.2,89.58 27.43,211.1 -85.05,229.85 -29.85,4.85 -23.26,56.93 6.95,53.11 125.67,-16.31 215.59,-141.66 166.99,-266.98 -63.18,-161.8 -264.55,-170.82 -394.4,-92.36 -166.31,100.33 -202.76,330.18 -102.43,489.88 52.08,83.32 130.54,138.18 208.32,195.13 25.68,18.75 45.82,38.87 62.15,60.06 -81.95,47.91 -205.89,88.17 -228.1,189.21 -43.75,200.67 185.04,171.85 189.21,171.16 168.04,-29.85 210.05,-243.72 155.19,-394.06 86.1,-56.25 178.11,-119.43 239.21,-200.67 5.9,-8.34 -5.9,-18.75 -13.88,-13.54l0 0zm-581.91 -794.46c-142.34,-159.36 -464.19,-171.51 -659.66,-154.49 -263.52,23.6 -510.71,120.47 -755.48,215.25 -3.12,-91.66 -26.04,-179.14 -84.71,-259.7 -55.2,-76.03 -180.53,-7.63 -128.45,75.34 45.48,72.22 59.01,156.24 56.23,244.07 -89.92,32.99 -181.23,63.2 -275.32,81.59 -88.17,17.7 -182.96,27.07 -272.2,10.07 -64.57,-12.15 -233.65,-70.47 -210.74,-170.12 21.19,-92 -118.03,-131.23 -142,-39.23 -48.6,188.18 131.59,263.16 285.39,288.17 206.59,33.67 413.16,-32.29 604.46,-103.46 1.73,-0.69 3.82,-1.39 5.56,-2.08 -16.32,147.9 -67.71,302.05 -85.07,430.51 -26.73,198.6 -65.61,446.15 38.53,630.86 212.49,376.7 561.76,-257.62 632.23,-440.59 9.37,-24.65 -30.19,-40.97 -42.35,-18.05 -77.08,146.17 -146.51,341.3 -303.44,420.1 -112.48,56.59 -133.32,12.51 -166.31,-96.85 -26.73,-89.58 -24.29,-185.4 -18.05,-277.76 13.54,-200.67 60.76,-393.02 92.7,-590.58 6.25,-40.26 11.12,-80.54 13.2,-120.11 183.31,-72.56 366.27,-146.86 558.98,-188.18 116.65,-25.34 237.46,-38.89 356.9,-31.94 72.56,4.17 144.78,15.62 214.22,37.5 40.28,11.8 79.15,27.77 116.65,48.25 66.66,26.73 80.9,75.69 42.01,146.86 -82.27,-4.17 -86.44,109.02 -18.05,135.06 167.7,63.52 245.46,-157.98 144.78,-270.47l0 0zm-178.45 850.96c-62.15,88.88 -111.8,189.91 -181.92,273.23 -22.58,26.73 -60.06,85.41 -96.53,80.56 -45.82,-6.59 -37.5,-92.02 -35.4,-133.32 9.72,-185.06 60.05,-366.64 -1.05,-548.57 -24.31,-72.22 -146.51,-65.62 -140.27,19.09 4.86,61.45 4.86,121.18 2.78,180.19 -37.5,62.84 -74.98,126.03 -113.18,188.52 -44.09,71.18 -91.31,171.17 -169.09,215.61 -11.8,-68.05 2.44,-165.26 2.78,-220.46 0.69,-109.36 3.82,-218.73 2.08,-328.09 -1.39,-98.26 -141.64,-95.14 -150.34,0 -14.23,155.53 -17,312.82 -15.27,469.04 1.05,81.59 3.13,199.3 112.5,206.23 73.95,4.51 127.06,-94.43 163.17,-149.98 55.89,-85.75 108.33,-174.63 160.75,-263.16 -5.56,69.44 -12.15,138.86 -17.36,210.74 -6.94,95.12 -1.39,226.36 91.31,279.49 74.3,42.35 137.49,-2.44 185.06,-63.2 89.56,-114.57 155.54,-273.57 221.49,-403.08 7.64,-14.59 -12.14,-26.04 -21.52,-12.85l0 0zm377.42 481.3c-55.55,31.6 -139.93,12.49 -144.78,-59.71 -3.83,-54.52 53.47,-105.55 91.31,-134.71 34.36,-26.04 73.25,-47.57 112.13,-69.1 47.23,83.32 -1.73,231.22 -58.66,263.52l0 0zm1191.55 -581.54c-39.92,28.82 -68.05,64.93 -96.51,104.85 -37.5,53.11 -91.32,181.92 -163.19,193.38 -148.24,23.95 -103.46,-440.59 -105.89,-527.73 -2.08,-62.84 -82.29,-70.13 -105.55,-17.36 -0.69,-8.33 -4.85,-15.97 -14.58,-20.83 -211.08,-107.62 -416.62,184.7 -387.8,373.93 15.97,107.28 112.84,145.81 203.1,93.04 55.89,-32.63 102.77,-85.75 144.78,-141.3 0.34,31.6 1.74,63.18 5.21,95.12 9.73,90.61 25.34,234.36 131.93,263.18 192.35,52.42 315.6,-283.66 404.82,-395.11 8.68,-10.76 -2.77,-30.89 -16.31,-21.17l0 0zm-524.26 2.78c-73.25,85.05 -188.87,202.4 -208.32,68.74 -15.97,-111.11 96.17,-311.43 223.24,-283.3 11.47,2.43 21.88,-2.08 28.82,-9.37 -25.34,73.25 -39.92,147.9 -43.74,223.93zm1266.55 -27.43c-80.54,137.49 -176.72,268.03 -286.08,383.65 -51.38,54.5 -142.69,167.34 -228.46,107.97 -60.74,-42.01 -75.34,-189.91 -82.27,-257.26 -7.98,-77.78 -10.76,-159.02 -9.73,-241.31 144.44,-176.72 294.76,-351 424.96,-537.79 96.53,-138.52 202.42,-320.8 178.8,-497.88 -20.14,-154.15 -154.49,-230.87 -298.24,-170.82 -155.54,65.28 -266.98,249.63 -331.91,396.84 -83.32,189.57 -102.07,407.26 -116.65,612.11 -16.66,231.92 -44.79,487.1 53.11,705.49 201.72,450.65 643,-302.41 733.97,-478.77 12.84,-25 -23.26,-46.53 -37.5,-22.22l0 0zm-367.32 -1054.41c25.34,-34.72 74.98,-95.48 120.81,-102.07 74.66,-10.76 149.3,26.39 169.09,98.95 21.17,78.81 -6.95,175.67 -34.02,249.62 -97.21,263.18 -309,493.37 -491.96,713.83 9.37,-189.91 39.92,-383.29 81.24,-557.23 32.97,-138.54 69.44,-286.08 154.85,-403.09l0 0zm1479.02 1055.8c-74.3,130.89 -162.48,254.14 -279.13,351 -89.58,75 -119.79,13.9 -145.47,-78.46 -22.22,-79.51 -34.02,-162.14 -40.28,-244.41 -6.95,-89.24 -5.21,-177.07 2.08,-264.21 120.13,-144.44 238.51,-291.98 334.69,-453.78 83.32,-139.91 210.74,-354.13 175.33,-526.33 -24.31,-117.35 -137.83,-175.68 -251.7,-136.79 -128.47,43.74 -204.84,185.04 -250.33,303.44 -94.78,247.53 -164.22,533.63 -179.5,816.93 -77.42,-70.13 -199.28,-77.78 -294.41,-39.58 -143.05,57.28 -194.77,213.17 -197.55,355.52 -2.44,124.64 58.32,285.74 210.05,204.84 53.47,-28.82 87.49,-77.08 121.16,-126.03 50.35,-73.25 103.82,-143.39 159.02,-212.83 4.51,126.03 20.82,249.62 53.45,366.98 37.85,137.49 145.47,286.42 297.2,171.5 144.78,-109.7 251.01,-310.73 317.68,-474.25 7.63,-18.75 -22.58,-30.56 -32.29,-13.54l0 0zm-361.42 -864.84c18.75,-109.36 19.44,-251.02 84.71,-345.45 27.07,-38.89 60.06,-71.18 107.63,-81.24 79.15,-16.32 166.29,62.83 163.17,146.51 -2.44,63.88 -26.39,128.45 -48.62,187.82 -88.87,236.78 -241.63,442.32 -400.3,638.13 21.17,-182.62 61.79,-362.81 93.39,-545.77l0 0zm-275.32 782.91c-45.84,56.59 -91.66,113.53 -142.35,165.6 -26.73,27.09 -67,78.81 -102.41,94.78 -86.8,39.23 -84.37,-43.74 -83.68,-95.12 1.39,-134.37 118.04,-422.54 291.64,-260.74 11.8,11.11 25.68,11.46 36.8,6.24 -0.69,29.87 -0.69,59.37 0,89.24l0 0zm1466.51 -34.72c-81.24,17 -187.82,45.13 -293.02,55.2 36.11,-150.68 64.93,-363.85 -17.36,-503.78 -67.35,-113.87 -181.23,-131.57 -295.81,-80.54 -140.61,62.15 -210.05,165.95 -184.01,321.85 11.46,67.69 33.34,135.05 68.05,193.03 -37.48,-22.92 -96.16,-14.92 -115.26,39.58 -52.42,148.59 -103.11,371.14 -13.19,516.95 76.37,123.6 230.88,134.03 319.06,21.88 89.93,-114.57 163.53,-265.26 210.4,-411.08 120.13,-11.11 243.73,-48.26 339.55,-85.75 41.67,-15.97 26.38,-77.08 -18.41,-67.35l0 0zm-669.72 -415.59c47.91,-52.08 175.67,-100.33 238.17,-68.74 80.54,40.96 96.85,154.15 99.29,232.27 3.12,101.38 -11.46,208.3 -40.97,310.73 -104.16,-1.39 -199.98,-29.16 -259.01,-114.57 -64.91,-93.75 -129.49,-260.4 -37.48,-359.69l0 0zm-60.76 796.79c-26.04,-91.65 13.19,-229.14 37.5,-315.94 3.46,-12.85 3.82,-24.31 2.07,-34.38 38.89,48.26 89.58,86.1 153.81,106.24 40.62,12.49 84.71,18.41 130.54,19.44 -21.17,52.77 -45.82,103.46 -74.98,149.64 -47.23,74.29 -195.13,265.59 -248.94,74.98l0 0z"/>
   <path class="fil4" d="M5101.88 1987.93c-14.61,16.53 -29.56,32.75 -45,48.53 -29.87,30.54 -67.41,79.91 -106.21,97.43 -23.72,10.72 -54.45,18.81 -76.57,0.1 -26.99,-22.83 -25.11,-74.1 -24.74,-106.76 1.69,-150.66 131.07,-439.08 312.66,-269.73 6.64,6.2 14.65,7.97 22.98,4.07 4.02,-1.89 8.4,-1.58 12.13,0.84 3.73,2.44 5.77,6.31 5.66,10.76 -0.68,29.54 -0.68,59.1 0,88.65 0.07,3.08 -0.84,5.75 -2.78,8.15 -2.93,3.62 -5.87,7.25 -8.8,10.87 1.23,0.03 2.47,0.25 3.7,0.65 5.06,1.67 8.38,6.09 8.58,11.43 4.39,122.67 20.26,245.61 53.01,364.08 5.41,19.58 12.11,38.86 20.05,57.55 48.9,114.98 138.81,197.3 257.56,107.34 87.52,-66.3 157.64,-163.81 211.99,-258.43 2.85,-4.97 8.5,-7.32 14.05,-5.86 5.53,1.48 9.27,6.31 9.27,12.07 0.1,66.81 11.86,135.85 47.44,193.46 70.53,114.29 214.46,127.85 298.61,20.73 91.77,-116.83 162.89,-265.83 208.33,-407.19 1.55,-4.86 5.65,-8.13 10.74,-8.61 113.45,-10.5 230.34,-43.81 336.18,-84.97 27.34,-10.63 18.65,-49.85 -11.28,-43.49 -98.23,20.83 -194.05,45.81 -294.44,55.42 -4.14,0.4 -7.88,-1.09 -10.62,-4.24 -2.74,-3.15 -3.68,-7.05 -2.72,-11.11 35.25,-147.1 64.49,-358.05 -15.97,-494.52 -63.45,-107.63 -171.06,-123.78 -279.98,-75.47 -135.29,60.01 -201.86,158.68 -176.75,308.37 10.99,65.59 32.18,131.47 66.44,188.68 2.99,5 2.22,11.19 -1.92,15.29 -4.14,4.1 -10.34,4.82 -15.3,1.79 -36.48,-22.28 -82.56,-7.88 -96.97,33.06 -21.12,59.96 -38.59,121.99 -49.7,184.62 -0.31,1.73 -0.87,3.16 -1.83,4.64 -62.64,96.04 -135.4,184.88 -223.76,258.51 -25.43,21.2 -62.79,46.24 -97.34,32.5 -40.01,-15.9 -57.73,-79.76 -68.15,-117.2 -22.43,-80.46 -34.31,-163.66 -40.71,-246.82 -6.82,-88.71 -5.32,-177.59 2.1,-266.21 0.22,-2.66 1.14,-4.89 2.84,-6.95 119.74,-143.97 237.63,-290.9 333.56,-452.17 82.61,-138.86 208.32,-350.18 173.84,-517.42 -23.02,-111.57 -130.3,-163.35 -235.45,-127.49 -124.14,42.34 -198.62,181.11 -242.7,296.09 -98.45,256.86 -163.84,537.88 -178.67,813.13 -0.27,4.92 -3.16,9.01 -7.73,10.88 -4.55,1.88 -9.48,1.02 -13.13,-2.29 -74.26,-67.28 -191.4,-73.33 -281.38,-37.25 -115.34,46.24 -168.66,159.85 -184.54,276.6 -0.24,1.74 -0.74,3.21 -1.64,4.73 -79.14,132.55 -172.39,257.85 -278.44,370.1 -57.52,60.86 -151.21,174.32 -244.65,109.66 -65.18,-45.1 -80.01,-192.48 -87.6,-266.25 -8.28,-80.53 -10.81,-161.81 -9.79,-242.74 0.04,-2.94 0.96,-5.46 2.82,-7.73 144.32,-176.59 293.86,-349.76 424.39,-537.05 95.15,-136.54 199.51,-316.15 176.66,-489.08 -19.28,-146.07 -145.34,-217.75 -281.03,-160.94 -151.86,63.6 -261.61,245.69 -325.3,390.36 -83,188.53 -101.08,404.6 -115.63,607.95 -5.89,82.32 -12.92,164.56 -15.67,247.08 -0.1,3.55 -1.52,6.58 -4.2,8.93 -27.83,24.66 -50.2,54.11 -71.63,84.32 -41.89,59.1 -92.2,185.75 -171.38,198.5 -13.29,2.13 -26.5,1.09 -39.01,-4.11 -76.8,-31.9 -83.13,-207.55 -85.08,-276.86 -1.46,-52.36 -0.52,-104.78 1.14,-157.13 1.05,-33.11 3.58,-68.63 2.59,-101.6 -1.45,-48.41 -63.41,-54 -81.62,-12.69 -2.34,5.29 -7.79,8.24 -13.5,7.28 -5.71,-0.96 -9.89,-5.52 -10.38,-11.28 -0.43,-5.23 -3.16,-8.37 -7.81,-10.74 -37.54,-19.13 -77.76,-26.28 -119.4,-18.9 -84.32,14.98 -153.9,84.86 -196.09,155.81 -35.68,60.04 -61.41,136.85 -56.15,207.39 0.34,4.45 -1.51,8.43 -5.12,11.05 -59.13,42.87 -114.76,90.32 -173.21,134.1 -3.09,2.31 -6.68,3.05 -10.44,2.13 -3.76,-0.9 -6.61,-3.21 -8.3,-6.68 -5.25,-10.81 -10.88,-21.49 -17.69,-31.7 -70.65,-110.38 -216.33,-179.63 -247.46,-315.01 -26.31,-114.42 9.51,-235.04 119.88,-289 67.01,-32.77 153.09,-47.29 202.82,23.11 67.9,96.12 29.13,229.06 -93.22,249.37 -13.88,2.29 -10.71,30.21 3.3,28.41 119.58,-15.45 202.12,-134.06 156.96,-250.06 -59.71,-153.36 -252.01,-161.24 -376.31,-86.19 -159.92,96.54 -194.64,318.94 -98.29,472.55 51.01,81.34 129.02,136.03 205.1,191.68 24.43,17.86 46.18,38.52 64.66,62.52 2.28,2.94 3.09,6.36 2.38,10.01 -0.71,3.65 -2.75,6.52 -5.96,8.4 -75.13,43.93 -201.43,86.07 -222.2,181.1 -14.57,66.56 -1.33,122.26 67.24,146.2 29.6,10.34 76.26,14.74 107.59,10 166.25,-29.5 194.32,-244.07 145.64,-377.47 -2.01,-5.53 -0.01,-11.53 4.91,-14.74 57.18,-37.37 114.7,-76.18 165.55,-121.98 3.24,-2.93 7.38,-3.92 11.59,-2.79 4.2,1.12 7.29,4.07 8.65,8.21 26.69,81.93 107.94,98.63 178.23,57.57 56.15,-32.81 102.27,-86.68 141.13,-138.07 3.28,-4.33 8.71,-6.03 13.87,-4.33 5.16,1.7 8.53,6.3 8.59,11.73 0.34,31.38 1.77,62.73 5.13,93.94 9.14,84.91 23.41,225.44 122.79,252.44 21.23,5.78 42.73,6.7 64.31,2.2 124.12,-25.91 224.24,-230.78 286.1,-331.97 2.96,-4.85 8.59,-7.05 14.06,-5.52 5.47,1.55 9.11,6.37 9.09,12.07 -0.4,133.04 13.99,267.61 68.89,390.23 25.82,57.64 67.93,123.26 136.03,133.01 62.43,8.93 127.63,-31.45 174.23,-68.6 67.68,-53.94 128.62,-125.64 180.8,-194.42 61.69,-81.33 118.04,-168.44 169.28,-256.73 2.81,-4.84 8.24,-7.17 13.68,-5.89 5.44,1.29 9.26,5.81 9.6,11.39 6.83,110.61 61.71,233.03 191.02,163.88 51.41,-27.47 84.57,-75.24 116.77,-122.08 25.89,-37.68 52.72,-74.66 80.19,-111.18zm-2314.22 571.8c-63.05,35.8 -157.78,12.42 -163.41,-69.74 -4.05,-59.28 53.11,-112.56 96.19,-145.49 35.37,-27.05 74.82,-48.58 113.68,-70.09 5.97,-3.31 13.54,-1.18 16.92,4.76 22.03,38.87 23.97,88.17 17.02,131.38 -7.84,48.74 -34.87,123.32 -80.4,149.17zm670.6 -581.48c-13.68,15.87 -27.64,31.51 -42.11,46.65 -29.72,31.07 -98.26,100.79 -146.58,84.43 -28.11,-9.52 -37.65,-42.44 -41.45,-68.7 -8.12,-56.12 14.03,-123.35 40.95,-171.99 38.12,-68.85 110.58,-144.45 197.35,-125.32 6.46,1.42 12.61,-1.09 17.08,-5.78 4.1,-4.3 10.47,-5.15 15.54,-2.06 5.09,3.09 7.26,9.14 5.31,14.76 -24.66,71.3 -39.29,145.13 -43.07,220.47 -0.15,2.9 -1.11,5.34 -3,7.53zm879.66 -1097.35c28.36,-38.86 79.12,-99.87 129.13,-107.07 78.84,-11.37 161.15,27.59 182.91,108.05 22.09,81.62 -5.91,180.08 -34.36,257.2 -98.94,268.38 -313.34,499.71 -494.06,717.48 -3.5,4.21 -9.05,5.65 -14.15,3.67 -5.1,-1.98 -8.22,-6.79 -7.94,-12.26 9.26,-187.54 38.17,-376.98 81.56,-559.51 33.46,-140.79 70.22,-288.82 156.9,-407.56zm1021.88 742.66c21.31,-183.7 62.13,-364.38 93.5,-546.47 19.53,-113.42 19.21,-252.93 86.76,-350.45 28.79,-41.57 64.32,-75.72 115.35,-86.36 89.71,-18.68 181.55,70.22 178.21,159.21 -2.48,65.82 -26.48,130.69 -49.4,191.76 -89.49,238.56 -243.2,445.26 -402.29,641.61 -3.55,4.38 -9.35,5.84 -14.55,3.65 -5.21,-2.19 -8.22,-7.35 -7.57,-12.95zm618.11 -220.22c49.79,-53.87 183.27,-106.78 253,-71.39 84.76,42.99 103.48,157.51 106.13,243.01 3.27,105.5 -12.26,213.29 -41.45,314.59 -1.58,5.49 -6.46,9.11 -12.17,9.02 -105.3,-1.4 -206.48,-29.41 -269.12,-119.95 -28.1,-40.62 -51.67,-87.39 -66.96,-134.35 -26.31,-80.84 -31.1,-174.21 30.56,-240.92zm-63.6 808.68c-26.69,-94.31 11.67,-230.11 37.47,-322.7 2.65,-9.46 3.49,-19.19 1.82,-28.89 -0.99,-5.69 1.91,-11.13 7.16,-13.52 5.26,-2.37 11.25,-0.95 14.88,3.55 38.93,48.32 88.23,83.62 147.8,102.15 40.93,12.75 84.36,17.92 127.11,18.88 4.23,0.1 7.82,2.08 10.14,5.62 2.32,3.52 2.74,7.6 1.17,11.52 -21.04,52.45 -45.75,103.91 -76.03,151.68 -19.78,31.2 -43.19,62.24 -68.17,89.45 -29.94,32.63 -81.2,80.35 -129.59,72.52 -42.9,-6.94 -63.26,-53.2 -73.74,-90.26zm-3499.6 -137.84c-0.16,0.1 -0.31,0.4 -0.41,0.55 -63.02,89.96 -111.52,189.73 -182.59,274.12 -24.93,29.59 -63.27,91.07 -107.8,84.88 -58.39,-8.13 -48.35,-104.4 -46.16,-146.35 9.48,-181.88 59.65,-365.22 -0.41,-543.92 -19.56,-58.23 -121.27,-55.51 -115.97,14.17 4.6,60.46 4.95,121 2.81,181.58 -0.07,2.19 -0.62,4.07 -1.76,5.96 -37.57,62.99 -74.81,126.19 -113.27,188.67 -46.9,76.2 -92.97,173.88 -173.52,219.91 -3.65,2.07 -7.72,2.23 -11.52,0.44 -3.8,-1.77 -6.27,-5.03 -6.98,-9.17 -12.81,-73.83 2.11,-148.61 2.59,-222.68 0.69,-109.28 3.73,-218.55 2.08,-327.83 -1.24,-82.6 -118.13,-78.58 -125.39,0.95 -8.8,96.12 -13.22,192.61 -14.89,289.1 -0.03,1.91 -0.43,3.55 -1.27,5.26 -63.11,129.1 -134.71,278.6 -269.12,346.16 -123.16,61.9 -150.09,8.12 -183.88,-104.44 -27.39,-91.24 -24.9,-188.15 -18.56,-282.18 13.52,-199.96 61.14,-394.41 92.83,-591.71 6.31,-39.32 10.96,-79.02 13.06,-118.8 0.25,-5 3.22,-9.12 7.87,-10.96 183.48,-72.62 367.43,-147.07 560.94,-188.77 117.93,-25.42 239.59,-39.19 360.27,-32.21 73.58,4.26 146.85,15.88 217,37.99 41.15,12.05 80.83,28.41 118.49,48.93 79.29,32.13 86.28,93.42 47.63,164.16 -2.35,4.3 -6.68,6.73 -11.59,6.48 -67.84,-3.43 -67.71,90.14 -12.98,110.9 155.5,59 222.62,-148 131.03,-250.45 -138.6,-155.04 -456.25,-167.46 -649.25,-150.38 -262.07,23.19 -508.91,120.31 -752.06,214.47 -3.89,1.51 -7.91,1.06 -11.4,-1.23 -3.47,-2.31 -5.46,-5.83 -5.59,-10.01 -3.18,-92.82 -27.1,-176.82 -82.33,-252.77 -45.9,-63.1 -151.37,-8 -107.78,61.34 47.57,75.69 60.94,163 58.16,251.13 -0.18,5.19 -3.31,9.54 -8.19,11.33 -90.51,33.2 -182.49,63.36 -277.2,82.11 -90.13,17.86 -186.01,27.34 -276.94,10.08 -39.88,-7.56 -84.43,-23.42 -120.48,-41.79 -53.57,-27.28 -115.84,-75.01 -100.11,-143.4 17.45,-75.89 -97.93,-109.72 -117.73,-33.3 -46.82,180.79 131.57,249.31 275.3,272.72 204.03,33.21 408.95,-32.47 597.81,-102.74 1.83,-0.74 3.71,-1.35 5.55,-2.08 4.2,-1.67 8.62,-1.08 12.21,1.66 3.59,2.74 5.35,6.83 4.85,11.31 -4.88,44.23 -12.72,88.16 -21.77,131.71 -20.55,98.91 -49.86,199.25 -63.33,299.11 -26.51,196.61 -65.15,441.85 37.04,623.03 29.26,51.89 73.45,106.21 137.46,110.75 152.85,10.82 323.45,-260.37 389.87,-379.54 2.81,-5.03 8.46,-7.45 14.05,-6 5.57,1.43 9.35,6.3 9.36,12.07 0.04,22.9 0.21,45.82 0.47,68.73 0.87,75.27 0.86,187.66 100.77,193.92 67,4.18 120.72,-96.4 151.94,-144.34 56,-86 108.18,-174.43 160.47,-262.72 3,-5.07 8.92,-7.32 14.52,-5.55 5.62,1.77 9.15,7.04 8.68,12.91 -5.62,70.22 -12.24,140.37 -17.36,210.65 -6.46,88.84 -2.72,217.55 85.05,267.73 69.06,39.47 126.55,-5.74 169.01,-60.04 91.63,-117.16 152.66,-268.83 220.22,-401.08 0.06,-0.12 0.16,-0.34 0.24,-0.55z"/>
   <path class="fil5" d="M8608.42 87.46c918.82,0 1663.68,744.86 1663.68,1663.69 0,918.82 -744.86,1663.68 -1663.68,1663.68 -918.83,0 -1663.69,-744.86 -1663.69,-1663.68 0,-918.83 744.86,-1663.69 1663.69,-1663.69z"/>
   <path class="fil6" d="M8633.55 274.73c834.84,0 1511.63,676.78 1511.63,1511.63 0,834.86 -676.78,1511.63 -1511.63,1511.63 -834.86,0 -1511.63,-676.77 -1511.63,-1511.63 0,-834.84 676.77,-1511.63 1511.63,-1511.63z"/>
   <path class="fil4" d="M8608.42 239.52c834.84,0 1511.63,676.78 1511.63,1511.63 0,834.86 -676.78,1511.64 -1511.63,1511.64 -834.86,0 -1511.64,-676.78 -1511.64,-1511.64 0,-834.84 676.78,-1511.63 1511.64,-1511.63z"/>
   <g>
    <path class="fil1" d="M9168.68 2002.11l-321.56 -0.19 -404.48 787.69 -209.28 -88.99 -399.22 121.9 710.34 -1391.01 948.51 0c2.14,-11.03 3.08,-22.39 3.08,-33.95 0,-45.48 -11.68,-85.59 -40.69,-120.85 -24.44,-29.72 -54.14,-41.2 -92.36,-41.2l-758.27 0 -573.13 1116.09 -578.54 385.69 -155.85 38 -46.5 -523.07 0 0 -114.26 -1284.78 274.61 -148.48 295.09 140.36 55.36 765.09 332.78 -648.02 236.21 -157.48 0 0.01 381.18 -254.1 186.12 0 573.88 0c168.11,0 308.62,79.35 422.18,199.68 112.35,119.06 186.29,261.85 186.29,427.9 0,44.89 3.65,82.51 -17.88,124.86l-489.7 963.5 -593.59 0 189.7 -378.66z"/>
    <path class="fil7" d="M9514.8 2286.62l-383.34 0 189.64 -378.58 -531.46 -0.31 -390.76 760.95 -160.23 -68.14 -219.7 67.09 583.17 -1141.98 953.68 0c22.93,-36.95 34.41,-79.66 34.41,-128.1 0,-70.1 -20.72,-130.33 -62.13,-180.68 -41.42,-50.33 -96.91,-75.52 -165.07,-75.52l-822.57 0 199.71 -382.38 731.53 0c128.74,0 246.87,56.93 353.7,170.15 106.84,113.22 160.6,234.54 160.6,363.27 0,30.59 3.28,60.7 -7.64,82.2l-463.54 912.01z"/>
    <polygon class="fil8" style="mask:url(#id0)" points="8797.98,1141.36 8547.24,1141.36 8743.6,758.98 8998.63,758.98 "/>
    <polygon class="fil9" points="8743.6,758.98 7959.02,2286.83 7385.74,2669 7382.3,2669 8166.86,1141.15 8740.15,758.98 "/>
    <polygon class="fil10" points="7235.71,1020.8 7260.02,1294.11 7382.3,2669 7691.85,2066.18 7616.2,1020.8 7413.78,924.51 "/>
    <polygon class="fil11" style="mask:url(#id2)" points="7345.92,2260.05 7382.3,2669 7691.85,2066.18 7662.26,1657.23 "/>
   </g>
  </g>
 </g>
</svg>
