<?xml version="1.0" encoding="UTF-8"?>
<!DOCTYPE svg PUBLIC "-//W3C//DTD SVG 1.1//EN" "http://www.w3.org/Graphics/SVG/1.1/DTD/svg11.dtd">
<!-- Creator: CorelDRAW X8 -->
<svg xmlns="http://www.w3.org/2000/svg" xml:space="preserve" width="4010px" height="1181px" version="1.1" style="shape-rendering:geometricPrecision; text-rendering:geometricPrecision; image-rendering:optimizeQuality; fill-rule:evenodd; clip-rule:evenodd"
viewBox="0 0 4010 1181"
 xmlns:xlink="http://www.w3.org/1999/xlink">
 <defs>
  <style type="text/css">
   <![CDATA[
    .fil1 {fill:#F5BE83}
    .fil0 {fill:#F78F1E}
   ]]>
  </style>
 </defs>
 <g id="Capa_x0020_1">
  <metadata id="CorelCorpID_0Corel-Layer"/>
  <g id="_948454800">
   <path class="fil0" d="M0 777l0 4 174 0c11,-71 27,-149 40,-221l34 -194c1,-7 2,-23 5,-28 13,-6 54,-10 70,-8 25,2 43,11 48,34 3,18 -5,53 -8,71l-49 275c-4,23 -9,48 -12,71l174 0c3,-18 6,-37 9,-55l59 -332c2,-3 8,-53 11,-55 10,-8 57,-11 71,-9 24,2 42,13 47,35 2,18 -6,54 -9,72l-55 308c-2,12 -4,24 -5,36l173 0c4,-26 10,-54 14,-80l43 -241c9,-54 25,-110 3,-161 -19,-39 -58,-68 -107,-82 -126,-35 -263,13 -267,13 -3,0 -14,-6 -17,-7 -102,-37 -237,-14 -337,26 -6,2 -12,4 -17,8 -2,5 -20,114 -23,129l-56 326c-3,10 -10,59 -13,65z"/>
   <path class="fil0" d="M1199 330c51,-8 80,18 94,51 16,37 14,88 5,129 -17,74 -53,156 -130,164 -23,3 -43,1 -60,-10 -50,-32 -50,-117 -40,-170 17,-77 56,-152 131,-164zm13 -125c-48,4 -82,9 -124,24 -51,19 -96,50 -131,92 -11,14 -20,29 -30,46 -17,29 -30,72 -37,111 -17,95 -1,178 47,237 10,13 25,27 37,37 50,37 111,49 176,47 183,-4 290,-111 320,-274 25,-131 -11,-251 -130,-301 -36,-14 -85,-22 -128,-19z"/>
   <path class="fil0" d="M2519 781l174 0c1,-2 1,0 1,-3 2,-5 75,-437 78,-440 15,-7 54,-10 72,-8 65,6 45,61 37,106 -4,23 -8,46 -12,70l-37 206c-2,12 -11,63 -11,70l174 0c7,-30 10,-62 16,-93 18,-93 34,-189 51,-283 14,-77 -6,-126 -52,-159 -47,-33 -108,-44 -180,-42 -66,2 -128,16 -184,37l-28 12c-7,2 -6,1 -7,8l-25 141c-12,63 -23,126 -33,188l-25 142c-4,15 -7,32 -9,48z"/>
   <path class="fil0" d="M3289 447c2,-9 11,-33 14,-40 6,-14 11,-24 19,-35 39,-57 112,-62 138,-17 13,22 15,63 9,92l-180 0zm246 314l15 -117c-5,2 -24,11 -39,15 -41,13 -100,21 -142,13 -60,-11 -93,-53 -93,-121l343 -1c11,-69 20,-151 -1,-218 -7,-21 -18,-42 -32,-59 -5,-8 -9,-11 -14,-17 -63,-72 -209,-59 -285,-23 -14,6 -27,13 -39,21 -12,9 -15,12 -26,20 -19,15 -47,50 -62,75 -26,47 -55,120 -55,188 0,57 7,101 33,149 7,13 16,27 25,36 10,11 18,20 32,29 86,60 198,57 296,26 14,-5 29,-11 44,-16z"/>
   <path class="fil0" d="M1586 781l176 0c3,-1 8,-14 9,-17l57 -122c22,-46 44,-92 66,-139l66 -139c6,-14 63,-136 64,-140l-164 0 -145 335 -21 -335 -185 0 77 557z"/>
   <path class="fil0" d="M4010 227l0 -3 -97 0 29 -160 -182 23c-14,77 -27,156 -41,233 -15,79 -27,155 -41,234 -10,55 -24,124 8,174 41,63 135,71 207,56 9,-2 18,-3 27,-6 4,-1 24,-6 26,-9 1,-2 21,-109 21,-116 -13,2 -23,9 -49,12 -19,2 -38,0 -51,-9 -30,-18 -18,-62 -13,-98l28 -156c3,-17 5,-36 10,-52l93 0c2,-1 -1,0 1,-1l24 -122z"/>
   <polygon class="fil0" points="2551,0 2376,0 2239,781 2414,781 "/>
   <polygon class="fil0" points="1958,781 2133,781 2231,224 2057,224 "/>
   <path class="fil0" d="M2158 15c-27,4 -48,15 -62,29 -23,25 -36,67 -19,103 34,72 179,58 185,-51 2,-56 -44,-89 -104,-81z"/>
   <path class="fil0" d="M2371 995c0,5 -11,55 -14,64 -3,14 -5,18 -13,25 -6,5 -21,14 -28,4 -9,-13 2,-54 7,-67 7,-18 22,-34 48,-26zm-16 111c2,8 6,15 13,18l33 -25c-4,-7 -11,-9 -5,-31l14 -65c2,-11 5,-20 8,-31 -7,-7 -30,-10 -42,-11 -48,-3 -78,17 -96,63 -9,23 -15,66 0,86 14,17 46,19 68,2 3,-2 5,-5 7,-6z"/>
   <path class="fil0" d="M3277 1030c-4,24 -9,44 -23,57 -7,6 -20,10 -28,2 -16,-16 3,-76 18,-91 10,-11 42,-16 33,32zm-25 -68c-40,7 -66,40 -74,81 -9,53 11,87 68,79 76,-11 90,-116 65,-144 -13,-13 -33,-21 -59,-16z"/>
   <path class="fil0" d="M3039 974c6,30 -1,46 -7,74 -3,13 -14,64 -14,72 8,0 34,1 39,-1 4,-4 19,-96 23,-103 6,-7 15,-15 23,-19 5,-2 14,-3 18,0 7,5 -4,42 -7,53 -2,12 -13,62 -14,70l39 0c4,-12 11,-45 14,-59 2,-12 10,-51 11,-61 5,-54 -49,-44 -72,-26 -4,3 -7,7 -11,9 0,-11 -1,-14 -3,-24 -8,1 -31,12 -39,15z"/>
   <path class="fil0" d="M3689 974l3 18c1,14 -25,117 -25,128l39 0c3,-5 13,-59 15,-69 3,-7 6,-31 8,-34 5,-7 15,-17 24,-20 18,-7 22,1 18,18 -3,17 -21,96 -21,105l39 0 14 -62c7,-37 32,-101 -26,-97 -14,0 -26,6 -36,14 -3,1 -4,2 -6,4 -1,2 -1,2 -5,4 0,-11 -1,-15 -3,-24l-38 15z"/>
   <path class="fil0" d="M2136 974c1,7 2,12 2,19 0,16 -13,72 -17,90 -2,9 -7,28 -7,37l40 0c3,-11 4,-24 7,-35 3,-12 5,-23 8,-35 1,-7 5,-30 8,-34 5,-7 12,-15 23,-19 5,-2 14,-4 18,0 5,6 -5,42 -7,53 -3,11 -5,23 -7,34 -2,9 -7,27 -7,36l40 0c3,-17 23,-108 24,-121 2,-25 -8,-39 -33,-39 -32,1 -45,21 -50,23 0,-8 0,-18 -5,-24l-37 15z"/>
   <path class="fil0" d="M3878 1026c8,-50 58,-41 48,-14 -2,4 -7,8 -12,11 -10,5 -25,6 -36,3zm71 76c-2,-4 -8,-22 -11,-25 -13,7 -25,17 -46,16 -16,-1 -23,-9 -23,-24l2 -13c0,0 0,-1 0,-1 26,4 48,2 69,-9 17,-9 31,-26 27,-53 -7,-42 -78,-41 -106,-12 -15,16 -23,30 -29,50 -6,21 -8,50 2,68 16,29 58,30 88,18 7,-3 23,-10 27,-15z"/>
   <path class="fil0" d="M2022 1026c2,-11 8,-23 15,-29 7,-6 24,-10 31,-2 10,11 1,23 -8,28 -10,4 -25,6 -38,3zm-8 34l1 -5c4,-1 3,-1 5,1 26,1 45,1 67,-11 16,-9 31,-28 25,-54 -10,-40 -80,-39 -107,-8 -15,16 -23,28 -28,50 -14,49 -2,94 59,91 11,-1 22,-3 32,-7 6,-3 22,-11 26,-15 -1,-4 -9,-23 -11,-25 -12,6 -22,16 -43,16 -29,0 -25,-20 -26,-33z"/>
   <path class="fil0" d="M3541 968c-4,13 -23,107 -24,116 -3,24 9,37 30,39 11,2 21,0 30,-4 12,-5 17,-11 23,-14 2,6 2,13 6,20l36 -14c-4,-17 -6,-16 -1,-39 2,-12 5,-24 8,-37 2,-11 14,-68 14,-75l-39 9c-4,6 -7,27 -8,35 -3,11 -13,63 -17,69 -5,6 -15,16 -24,19 -28,7 -12,-42 -7,-60 2,-11 13,-65 15,-72l-42 8z"/>
   <path class="fil0" d="M1837 1078c-4,7 -15,23 -16,29 7,5 27,13 37,15 15,3 33,3 49,0 51,-12 66,-67 29,-89 -16,-9 -53,-12 -44,-33 6,-12 30,-10 41,-7 8,2 13,6 20,8l16 -27c-7,-6 -29,-13 -40,-14 -29,-3 -63,4 -77,29 -7,11 -10,30 -3,43 15,30 66,22 62,45 -3,15 -22,17 -36,15 -22,-3 -29,-12 -38,-14z"/>
   <path class="fil0" d="M3331 1078l-15 29c12,6 22,12 37,15 16,3 34,3 49,0 51,-12 66,-67 28,-89 -10,-6 -27,-9 -37,-16 -12,-7 -9,-24 11,-26 8,-1 17,0 24,2 8,2 13,6 19,8 4,-7 14,-20 16,-27 -7,-6 -27,-13 -38,-14 -17,-1 -36,0 -49,6 -14,5 -23,12 -30,23 -9,17 -9,43 10,57 7,4 12,6 19,8 6,3 12,5 19,7 24,10 8,26 -1,30 -23,10 -58,-12 -62,-13z"/>
   <path class="fil0" d="M2669 989c0,9 -7,32 -9,42 -3,12 -5,31 -11,41 -6,10 -14,19 -27,25 -13,6 -31,7 -38,-4 -13,-21 3,-67 13,-83 16,-26 52,-32 72,-21zm-40 192l2 0 22 -5c1,-15 7,-34 10,-49 8,-39 17,-89 26,-125 3,-8 6,-18 7,-26 -6,-2 -10,-6 -17,-8 -22,-7 -51,-5 -69,4 -63,32 -67,123 -40,143 11,9 27,9 44,5 7,-2 14,-5 18,-9 8,-5 12,-11 14,-13l-17 83z"/>
   <path class="fil0" d="M2457 906c2,15 2,20 -2,35 -1,10 -4,22 -7,32 -4,22 -9,44 -13,65 -3,14 -13,53 -9,66 6,23 33,22 56,15l-2 -24c-15,1 -14,-7 -11,-19 1,-8 3,-16 5,-25 4,-17 7,-33 11,-50 8,-35 17,-70 16,-107 -11,0 -32,9 -44,12z"/>
   <path class="fil0" d="M1752 988c-2,6 -15,76 -19,82 -17,29 -49,42 -61,23 -11,-17 0,-86 37,-105 12,-5 31,-8 43,0zm-21 106c1,15 3,24 13,31 2,-1 15,-11 18,-14 -3,-7 -10,-8 -6,-33 2,-12 5,-23 7,-34l15 -68c-23,-16 -57,-16 -83,-2 -36,20 -54,67 -51,107 3,49 47,50 75,27 5,-4 8,-9 12,-14z"/>
   <path class="fil0" d="M2873 1033c4,-23 32,-62 61,-47 14,7 10,30 1,37 -14,12 -41,11 -62,10zm79 67c-2,-3 -8,-12 -10,-14 -33,27 -85,27 -72,-34 24,0 47,2 67,-7 17,-7 32,-21 31,-46 -1,-22 -17,-34 -40,-35 -26,-1 -42,11 -55,22 -20,19 -45,73 -26,112 16,30 58,29 82,19 8,-4 15,-9 21,-14 1,-2 0,-1 2,-3z"/>
   <path class="fil0" d="M2726 970c-4,6 -6,22 -7,30 -2,11 -5,20 -7,30 -6,27 -23,76 0,90 8,5 22,6 32,4 16,-3 25,-11 35,-20 2,-2 3,-3 6,-5 2,-2 2,-3 4,-5 0,17 4,23 12,32 4,-2 14,-12 19,-15 -2,-6 -6,-7 -7,-16 0,-6 1,-13 2,-20 4,-16 23,-101 23,-109 -28,3 -24,2 -28,23 -1,7 -3,13 -4,20 -3,13 -5,26 -9,40 -3,15 -3,22 -15,32 -9,9 -15,15 -28,20 -42,17 -26,-32 -22,-55 4,-15 16,-71 17,-81 -6,1 -19,2 -23,5z"/>
   <path class="fil0" d="M1609 905c0,13 3,19 0,33 -1,10 -3,20 -5,31l-26 122c-6,32 9,35 37,29l-1 -16c-19,0 -14,-9 -6,-44 4,-18 8,-35 12,-53 7,-31 20,-78 14,-111l-25 9z"/>
   <path class="fil0" d="M2154 920c1,5 7,20 10,22 7,-4 10,-11 24,-10 18,1 35,32 76,-8 0,-5 -7,-15 -8,-22 -9,3 -10,11 -27,10 -17,-1 -30,-21 -55,-8 -6,4 -18,12 -20,16z"/>
   <path class="fil1" d="M2014 1060l2 -5 4 1c-2,-2 -1,-2 -5,-1l-1 5z"/>
  </g>
 </g>
</svg>
