<?xml version="1.0" encoding="UTF-8"?>
<!DOCTYPE svg PUBLIC "-//W3C//DTD SVG 1.1//EN" "http://www.w3.org/Graphics/SVG/1.1/DTD/svg11.dtd">
<!-- Creator: CorelDRAW X8 -->
<svg xmlns="http://www.w3.org/2000/svg" xml:space="preserve" width="745px" height="118px" version="1.1" style="shape-rendering:geometricPrecision; text-rendering:geometricPrecision; image-rendering:optimizeQuality; fill-rule:evenodd; clip-rule:evenodd"
viewBox="0 0 745 118"
 xmlns:xlink="http://www.w3.org/1999/xlink">
 <defs>
  <style type="text/css">
   <![CDATA[
    .fil5 {fill:#FEFEFE}
    .fil4 {fill:#E83B88}
    .fil3 {fill:#DF317F}
    .fil2 {fill:#9FC428}
    .fil1 {fill:#76B834}
    .fil0 {fill:#005A82;fill-rule:nonzero}
   ]]>
  </style>
 </defs>
 <g id="Capa_x0020_1">
  <metadata id="CorelCorpID_0Corel-Layer"/>
  <g id="_937078656">
   <path class="fil0" d="M544 38l-6 0c-8,0 -14,3 -17,9 -1,2 -1,6 -1,9l0 31c0,1 0,1 1,1l8 0c1,0 1,0 1,-1l0 -26c0,-3 0,-6 0,-8 1,-4 3,-6 9,-6l5 0c1,0 1,0 1,-1l0 -7c0,-1 0,-1 -1,-1zm-43 2l0 0c-3,-1 -7,-2 -13,-2l0 0c-4,0 -8,0 -13,1 0,0 -1,1 -1,2l0 6c0,1 1,1 2,1 3,-1 7,-1 11,-1l0 0c4,0 8,0 10,2 2,1 3,3 3,8l0 1c-3,-1 -7,-1 -10,-1l-1 0c-6,0 -12,1 -15,5 -3,2 -5,6 -5,11l0 0c0,10 7,16 21,16l2 0c5,0 11,-2 14,-4 3,-3 5,-7 5,-14l0 -14c0,-10 -4,-15 -10,-17zm-1 30l0 0c0,4 0,6 -1,8 -2,1 -4,2 -8,2l-1 0c-7,0 -10,-2 -10,-7 0,-2 1,-4 2,-5 1,-2 4,-3 8,-3l1 0c3,0 6,1 9,2l0 3zm-39 9l0 0 -1 0c-3,0 -5,-1 -6,-2 -2,-2 -2,-5 -2,-8l0 -21 9 0c1,0 1,-1 1,-1l0 -7c0,-1 0,-1 -1,-1l-9 0 0 -9c0,-1 -1,-1 -1,-1l-9 0c-1,0 -1,0 -1,1l0 40c0,6 1,11 5,14 2,3 7,4 13,4l2 0c1,0 2,0 2,-1l0 -7c0,-1 -1,-1 -2,-1zm-42 -20l0 0c-3,-1 -5,-2 -7,-2 -4,-2 -5,-3 -5,-5 0,-4 4,-5 9,-5l1 0c3,0 7,0 12,1 0,0 1,0 1,-1l0 -6c0,-1 0,-2 -1,-2 -3,0 -9,-1 -12,-1l-1 0c-6,0 -11,1 -15,4 -2,2 -4,6 -4,10l0 0c0,4 1,7 4,9 2,2 5,4 9,5 2,1 4,2 6,2 5,2 7,3 7,6 0,4 -3,6 -11,6l0 0c-4,0 -9,-1 -13,-2 -1,0 -1,0 -1,1l0 6c0,1 0,2 1,2 4,1 9,2 14,2l0 0c13,0 20,-6 20,-15l0 0c0,-4 -1,-7 -3,-9 -3,-2 -6,-4 -11,-6zm-33 -20l0 0 -8 0c-1,0 -1,0 -1,1 0,0 0,47 0,47 0,1 0,1 1,1l8 0c1,0 1,0 1,-1l0 -47c0,-1 0,-1 -1,-1zm-19 0l0 0c0,0 -9,0 -9,0 -1,0 -1,0 -1,1 -1,6 -2,14 -4,20 -2,7 -4,13 -7,18 -2,-5 -5,-11 -7,-18 -2,-6 -3,-14 -3,-20 0,-1 -1,-1 -2,-1l-8 0c-1,0 -2,0 -1,1 1,17 6,30 15,47 0,1 1,1 2,1l9 0c1,0 1,0 1,-1 6,-11 15,-30 16,-47 0,-1 0,-1 -1,-1zm-70 -1l0 0 -1 0c-11,0 -18,3 -21,12 -1,3 -1,7 -1,13 0,7 0,11 1,14 3,9 10,12 21,12l1 0c11,0 18,-3 20,-12 1,-3 2,-7 2,-14 0,-6 -1,-10 -2,-13 -2,-9 -9,-12 -20,-12zm11 33l0 0c-1,8 -5,9 -12,9l0 0c-6,0 -10,-1 -11,-9 0,-3 -1,-5 -1,-8 0,-2 1,-4 1,-7 1,-8 5,-9 11,-9l0 0c7,0 11,1 12,9 0,3 0,5 0,7 0,3 0,5 0,8zm-62 -33l0 0 -3 0c-7,0 -12,2 -14,5l-1 0c-2,-3 -7,-5 -14,-5l-3 0c-8,0 -15,3 -18,9 -1,2 -1,6 -1,9l0 31c0,1 0,1 1,1l8 0c1,0 1,0 1,-1l0 -26c0,-3 0,-6 0,-8 1,-4 4,-6 10,-6l1 0c6,0 9,2 10,6 0,2 0,5 0,8l0 26c0,1 0,1 1,1l8 0c1,0 2,0 2,-1l0 -26c0,-3 0,-6 0,-8 0,-4 4,-6 10,-6l0 0c6,0 10,2 10,6 0,2 0,5 0,8l0 26c0,1 1,1 1,1l9 0c1,0 1,0 1,-1l0 -31c0,-3 0,-7 -2,-9 -2,-6 -9,-9 -17,-9z"/>
   <g>
    <path class="fil1" d="M12 113c6,10 16,2 13,-9 -3,-14 -10,-27 -9,-42 0,-1 1,-4 4,-2 3,2 6,5 9,9 7,9 11,17 17,26 16,29 54,21 62,-9 3,-9 5,-19 9,-26 4,-6 10,-13 17,-16 4,-2 4,0 4,4 1,12 -1,25 0,36 2,17 19,13 20,-3 1,-24 4,-51 -11,-71 -13,-20 -37,-4 -44,13 -3,7 -6,13 -8,20 -6,19 -23,17 -32,1 -11,-21 -23,-31 -33,-31 -14,1 -24,14 -28,36 -5,22 0,44 10,64z"/>
    <path class="fil2" d="M17 60c0,0 0,0 0,0 2,-17 10,-31 35,-34 -8,-9 -15,-13 -22,-13 -14,1 -24,14 -28,36 -1,3 -1,6 -2,9 6,-3 14,-2 17,2z"/>
    <path class="fil2" d="M137 44c4,-3 17,-4 21,-2 -1,-12 -4,-23 -11,-32 -10,-15 -26,-10 -36,0 13,4 22,13 26,34z"/>
   </g>
   <g>
    <path class="fil3" d="M672 101l0 8 21 0c5,0 9,4 9,9l0 0 -90 0 0 0c0,-5 4,-9 9,-9l20 0 0 -8 -64 0c-5,0 -9,-4 -9,-9l0 -83c0,-5 4,-9 9,-9l159 0c5,0 9,4 9,9l0 83c0,5 -4,9 -9,9l-64 0z"/>
    <path class="fil4" d="M568 83l0 -74c0,-5 4,-9 9,-9l159 0c5,0 9,4 9,9l0 18c-52,24 -113,43 -177,56z"/>
    <polygon class="fil5" points="602,17 669,17 683,63 697,17 711,17 690,82 675,82 655,28 638,28 638,82 622,82 622,28 602,28 "/>
   </g>
  </g>
 </g>
</svg>
