<?xml version="1.0" encoding="UTF-8"?>
<!DOCTYPE svg PUBLIC "-//W3C//DTD SVG 1.1//EN" "http://www.w3.org/Graphics/SVG/1.1/DTD/svg11.dtd">
<!-- Creator: CorelDRAW 2017 -->
<svg xmlns="http://www.w3.org/2000/svg" xml:space="preserve" width="265.375mm" height="56.2732mm" version="1.1" style="shape-rendering:geometricPrecision; text-rendering:geometricPrecision; image-rendering:optimizeQuality; fill-rule:evenodd; clip-rule:evenodd"
viewBox="0 0 33250.67 7050.86"
 xmlns:xlink="http://www.w3.org/1999/xlink">
 <defs>
  <style type="text/css">
   <![CDATA[
    .fil0 {fill:#071630}
    .fil2 {fill:#1FB1E6}
    .fil1 {fill:#666666}
    .fil3 {fill:white}
   ]]>
  </style>
 </defs>
 <g id="Capa_x0020_1">
  <metadata id="CorelCorpID_0Corel-Layer"/>
  <g id="_84858576">
   <path class="fil0" d="M5860.84 2645.15l0 -178.86 -693.21 0 0 3197.88 693.21 0 0 -2482.15c234.78,-138.8 797.8,-302.38 1032.3,-96.25 168.57,147.71 197.78,442.3 197.78,744.67l0 1833.72 715.75 0c0,0 0.84,-2493.55 0.84,-2493.55 215.02,-112.65 641.75,-228.94 912.69,-101.25 283.74,133.53 294.03,550.78 294.03,962.48l0 1632.32 693.21 0 0 -1900.77c0,-603.64 -169.41,-1196.15 -664,-1334.12 -438.68,-122.4 -1102.68,-20.86 -1572.24,260.64 -375.82,-405.02 -1227.02,-369.41 -1610.34,-44.78l-0.01 0.03z"/>
   <path class="fil1" d="M21180.16 1191.69c16.41,196.11 1044.83,3123.62 1199.21,3586.5 69.82,209.46 134.92,408.08 206.4,598.91 157.45,420.32 47.56,398.9 763.59,398.9 326.02,0 312.11,-142.15 394.17,-388.61 234.51,-703.78 1395.04,-4012.37 1395.04,-4173.44 0,-145.21 -389.72,-134.08 -514.34,-134.08 -243.13,0 -310.16,65.64 -372.47,253.69l-1081.26 3369.24c-22.53,-269.55 -190.83,-725.76 -271.22,-981.4 -99.03,-315.45 -210.02,-630.34 -318.79,-956.08 -106.82,-320.46 -201.68,-627.56 -307.38,-944.68 -252.86,-759.14 -163.56,-740.78 -735.22,-740.78 -216.14,0 -325.75,15.85 -357.74,111.83l0.01 0.01z"/>
   <path class="fil0" d="M11787.33 5127.58l-559.13 -44.51 0 -1834c0,-107.66 1319.38,-709.9 1319.38,648.42 0,592.23 30.05,1230.09 -760.25,1230.09l0 -0.01zm-559.13 -2482.43l0 -178.86 -693.21 0 0 4584.58 693.21 0 0 -1364.16c581.38,66.48 1403.66,157.72 1780.87,-410.86 403.63,-608.92 551.62,-2876.59 -819.22,-2876.59 -452.59,0 -544.94,25.6 -961.64,245.91l-0.01 -0.01z"/>
   <path class="fil0" d="M0.83 2360.02c-50.34,1805.07 2214.83,888.21 2214.83,2119.12 0,391.39 -358.29,663.45 -760.25,626.17l-1342.19 -110.44 -74.28 579.16 1640.11 157.45c809.21,-19.47 1274.6,-573.03 1274.6,-1408.95 0,-712.68 -416.42,-941.07 -952.75,-1127.16 -617.26,-213.92 -1283.49,-227.55 -1283.49,-796.14 0,-418.38 375.54,-574.42 782.78,-559.13l1281.55 143.54c0,0 81.23,-618.94 81.23,-618.94 0,0 -120.72,-28.66 -445.63,-84.01 -655.93,-111.26 -1490.73,-176.64 -2020.1,216.98 -215.59,160.51 -396.4,497.09 -396.4,862.34z"/>
   <path class="fil1" d="M17534.97 1437.6c0,543 39.22,424.77 1319.38,424.77l0 3712.51c0,236.72 369.69,201.11 559.13,201.11 203.34,0 335.48,-62.59 335.48,-268.16l0 -3645.47 1050.94 0c278.45,0 246.18,-234.78 246.18,-469.56 0,-151.89 -25.87,-290.69 -179.15,-290.69l-3153.1 0c-161.62,0 -178.86,174.69 -178.86,335.48z"/>
   <path class="fil0" d="M16148.27 3696.37c0,-537.71 264.54,-715.75 738,-715.75 503.49,0 581.38,392.23 581.38,827.56l-1319.38 0 0 -111.83 0 0.01zm-715.75 245.9l0 335.48c0,826.17 361.63,1453.73 1185.3,1453.73 586.67,0 861.5,-57.3 1454.57,-127.68l-28.66 -543c-869.85,19.2 -1895.48,372.76 -1895.48,-693.48l1923.3 0c117.67,0 89.57,-537.15 89.57,-693.48 0,-707.11 -463.71,-1274.6 -1163.04,-1274.6l-335.48 0c-808.65,0 -1230.09,716.3 -1230.09,1543.03l0.01 -0.01z"/>
   <polygon class="fil0" points="13979.06,5664.18 14694.53,5664.18 14694.53,1124.38 13979.06,1124.38 "/>
   <polygon class="fil0" points="3624.6,5664.18 4317.81,5664.18 4317.81,2466.28 3624.6,2466.28 "/>
   <polygon class="fil0" points="3624.6,1929.69 4317.81,1929.69 4317.81,1169.16 3624.6,1169.16 "/>
   <ellipse class="fil2" cx="29912.58" cy="3304.7" rx="3338.09" ry="3304.7"/>
   <g>
    <path class="fil3" d="M29912.58 2682.98c-137.7,39.51 -193.06,124.07 -207.52,230.61l0 516.01 -1205.33 -1008.1c-94.86,-80.95 -170.8,-220.87 -220.6,-503.22l0 -159.67c0,-324.07 265.38,-589.45 589.72,-589.45l2087.7 0c324.07,0 589.45,265.38 589.45,589.45l0 334.64c0,324.36 -265.38,589.72 -589.45,589.72l-1043.99 0 0.01 0z"/>
    <path class="fil3" d="M29912.58 3926.42c137.7,-39.78 193.06,-124.07 207.52,-230.88l0 -515.74 1205.61 1008.1c94.57,80.95 170.52,220.6 220.31,503.22l0 159.39c0,324.36 -265.38,589.72 -589.45,589.72l-2087.7 0c-324.36,0 -589.72,-265.38 -589.72,-589.72l0 -334.64c0,-324.36 265.38,-589.45 589.72,-589.45l1043.71 0z"/>
   </g>
  </g>
 </g>
</svg>
