<?xml version="1.0" encoding="UTF-8"?>
<!DOCTYPE svg PUBLIC "-//W3C//DTD SVG 1.1//EN" "http://www.w3.org/Graphics/SVG/1.1/DTD/svg11.dtd">
<!-- Creator: CorelDRAW 2017 -->
<svg xmlns="http://www.w3.org/2000/svg" xml:space="preserve" width="180px" height="60px" version="1.1" style="shape-rendering:geometricPrecision; text-rendering:geometricPrecision; image-rendering:optimizeQuality; fill-rule:evenodd; clip-rule:evenodd"
viewBox="0 0 32.43 10.8"
 xmlns:xlink="http://www.w3.org/1999/xlink">
 <defs>
  <style type="text/css">
   <![CDATA[
    .fil0 {fill:#ADAAAA}
    .fil4 {fill:white}
    .fil2 {fill:black;fill-rule:nonzero}
    .fil5 {fill:#2CB742;fill-rule:nonzero}
    .fil1 {fill:white;fill-rule:nonzero}
    .fil6 {fill:white;fill-rule:nonzero}
    .fil3 {fill:black;fill-opacity:0.149020}
   ]]>
  </style>
 </defs>
 <g id="Capa_x0020_1">
  <metadata id="CorelCorpID_0Corel-Layer"/>
  <g id="_2081845956944">
   <g>
    <path class="fil0" d="M20.62 7.27c0.26,0.14 0.52,0.29 0.77,0.44l0.14 0.08 -0.15 0.06c-0.25,0.11 -0.5,0.21 -0.76,0.32 -0.03,0.44 -0.43,0.75 -0.86,0.75 -6.3,0 -12.6,0 -18.89,0 -0.45,0 -0.87,-0.33 -0.87,-0.8 0,-0.72 0,-1.44 0,-2.15 0,-0.47 0.42,-0.8 0.87,-0.8 6.29,0 12.59,0 18.89,0 0.44,0 0.86,0.33 0.86,0.8 0,0.43 0,0.86 0,1.3z"/>
   </g>
   <path class="fil1" d="M0.87 8.84c0.99,0 17.89,0 18.89,0 0.43,0 0.78,-0.33 0.78,-0.72 0,0 0,0 0,0 0.27,-0.12 0.54,-0.23 0.81,-0.34 -0.27,-0.16 -0.54,-0.31 -0.81,-0.47 0,-0.45 0,-0.9 0,-1.34 0,-0.4 -0.35,-0.72 -0.78,-0.72 -1,0 -17.9,0 -18.89,0 -0.44,0 -0.79,0.32 -0.79,0.72 0,0.71 0,1.43 0,2.15 0,0.39 0.35,0.72 0.79,0.72z"/>
   <path class="fil2" d="M1.8 6.7c0,0.02 -0.01,0.05 -0.03,0.06 -0.02,0.02 -0.04,0.03 -0.07,0.03 -0.02,0 -0.05,-0.01 -0.07,-0.03 -0.02,-0.01 -0.02,-0.04 -0.02,-0.06 0,-0.03 0,-0.05 0.02,-0.07 0.02,-0.02 0.05,-0.03 0.07,-0.03 0.03,0 0.05,0.01 0.07,0.03 0.02,0.02 0.03,0.04 0.03,0.07zm-0.41 0.39c0,-0.07 0.03,-0.13 0.07,-0.17 0.05,-0.04 0.11,-0.06 0.18,-0.06 0.07,0 0.13,0.02 0.17,0.06 0.05,0.04 0.07,0.09 0.07,0.15 0,0.06 -0.01,0.1 -0.04,0.14 -0.03,0.04 -0.08,0.08 -0.16,0.12 -0.01,0 -0.02,0 -0.03,0.01 -0.11,0.06 -0.17,0.11 -0.17,0.16 0,0.03 0.01,0.05 0.03,0.07 0.02,0.01 0.05,0.02 0.08,0.02 0.04,0 0.07,-0.01 0.09,-0.03 0.02,-0.02 0.03,-0.05 0.04,-0.09l0.14 0c0,0.08 -0.03,0.14 -0.08,0.18 -0.05,0.05 -0.12,0.07 -0.2,0.07 -0.07,0 -0.14,-0.02 -0.18,-0.06 -0.05,-0.04 -0.07,-0.1 -0.07,-0.17 0,-0.04 0.01,-0.08 0.04,-0.12 0.03,-0.03 0.07,-0.07 0.14,-0.1 0.01,-0.01 0.03,-0.02 0.06,-0.04 0.11,-0.05 0.17,-0.1 0.17,-0.15 0,-0.02 -0.01,-0.05 -0.03,-0.06 -0.02,-0.02 -0.04,-0.03 -0.07,-0.03 -0.03,0 -0.05,0.01 -0.07,0.03 -0.02,0.02 -0.03,0.04 -0.03,0.07l-0.15 0zm1.6 -0.4l-0.03 0.19c-0.04,-0.05 -0.08,-0.08 -0.13,-0.1 -0.05,-0.02 -0.1,-0.03 -0.16,-0.03 -0.06,0 -0.11,0.01 -0.16,0.03 -0.05,0.02 -0.09,0.05 -0.13,0.08 -0.04,0.05 -0.07,0.1 -0.1,0.16 -0.02,0.05 -0.03,0.11 -0.03,0.18 0,0.11 0.03,0.2 0.1,0.27 0.07,0.06 0.16,0.1 0.26,0.1 0.06,0 0.11,-0.01 0.16,-0.03 0.05,-0.02 0.1,-0.04 0.14,-0.08l-0.03 0.2c-0.05,0.02 -0.1,0.04 -0.14,0.05 -0.05,0.01 -0.09,0.01 -0.13,0.01 -0.16,0 -0.29,-0.05 -0.38,-0.14 -0.1,-0.1 -0.14,-0.22 -0.14,-0.38 0,-0.08 0.01,-0.16 0.04,-0.24 0.03,-0.08 0.07,-0.15 0.13,-0.2 0.05,-0.05 0.11,-0.09 0.18,-0.12 0.07,-0.03 0.14,-0.04 0.22,-0.04 0.07,0 0.13,0.01 0.18,0.02 0.06,0.02 0.11,0.04 0.15,0.07zm0.45 0.42c-0.07,0 -0.12,0.03 -0.17,0.08 -0.04,0.05 -0.06,0.11 -0.06,0.19 0,0.06 0.01,0.11 0.05,0.15 0.03,0.03 0.07,0.05 0.13,0.05 0.07,0 0.13,-0.02 0.18,-0.07 0.04,-0.05 0.06,-0.11 0.06,-0.19 0,-0.07 -0.01,-0.12 -0.05,-0.15 -0.03,-0.04 -0.08,-0.06 -0.14,-0.06zm0 -0.14c0.11,0 0.2,0.04 0.26,0.1 0.06,0.06 0.1,0.15 0.1,0.25 0,0.12 -0.04,0.21 -0.12,0.29 -0.07,0.07 -0.17,0.11 -0.29,0.11 -0.1,0 -0.19,-0.03 -0.25,-0.09 -0.06,-0.06 -0.1,-0.15 -0.1,-0.25 0,-0.12 0.04,-0.22 0.11,-0.29 0.08,-0.08 0.17,-0.12 0.29,-0.12zm0.02 -0.08l-0.1 0 0.16 -0.25 0.16 0 -0.22 0.25zm1.35 0.8l0.06 -0.4c0,-0.01 0,-0.02 0,-0.02 0,-0.01 0,-0.02 0,-0.03 0,-0.05 -0.01,-0.08 -0.03,-0.11 -0.02,-0.02 -0.04,-0.03 -0.08,-0.03 -0.06,0 -0.1,0.02 -0.13,0.06 -0.04,0.04 -0.06,0.1 -0.07,0.19l-0.04 0.34 -0.16 0 0.05 -0.4c0,-0.01 0,-0.02 0,-0.03 0,0 0,-0.01 0,-0.02 0,-0.05 -0.01,-0.08 -0.03,-0.11 -0.01,-0.02 -0.04,-0.03 -0.08,-0.03 -0.06,0 -0.1,0.02 -0.13,0.06 -0.03,0.04 -0.05,0.1 -0.06,0.19l-0.05 0.34 -0.15 0 0.09 -0.69 0.16 0 -0.03 0.08c0.04,-0.03 0.08,-0.06 0.12,-0.08 0.04,-0.02 0.08,-0.02 0.12,-0.02 0.05,0 0.09,0.01 0.12,0.03 0.04,0.02 0.06,0.05 0.08,0.09 0.04,-0.04 0.08,-0.07 0.12,-0.09 0.04,-0.02 0.09,-0.03 0.14,-0.03 0.06,0 0.11,0.01 0.15,0.05 0.03,0.04 0.05,0.09 0.05,0.16 0,0.02 0,0.04 0,0.06 0,0.01 0,0.04 -0.01,0.07l-0.05 0.37 -0.16 0zm0.76 -0.58c-0.07,0 -0.13,0.03 -0.17,0.08 -0.05,0.05 -0.07,0.11 -0.07,0.19 0,0.06 0.02,0.11 0.05,0.15 0.04,0.03 0.08,0.05 0.14,0.05 0.07,0 0.13,-0.02 0.17,-0.07 0.05,-0.05 0.07,-0.11 0.07,-0.19 0,-0.07 -0.02,-0.12 -0.05,-0.15 -0.03,-0.04 -0.08,-0.06 -0.14,-0.06zm0 -0.14c0.11,0 0.19,0.04 0.26,0.1 0.06,0.06 0.09,0.15 0.09,0.25 0,0.12 -0.04,0.21 -0.11,0.29 -0.08,0.07 -0.17,0.11 -0.29,0.11 -0.11,0 -0.19,-0.03 -0.26,-0.09 -0.06,-0.06 -0.09,-0.15 -0.09,-0.25 0,-0.12 0.04,-0.22 0.11,-0.29 0.07,-0.08 0.17,-0.12 0.29,-0.12zm1.48 0.35c0,-0.06 -0.02,-0.11 -0.05,-0.15 -0.02,-0.04 -0.07,-0.06 -0.12,-0.06 -0.07,0 -0.12,0.03 -0.15,0.08 -0.04,0.05 -0.06,0.12 -0.06,0.2 0,0.06 0.02,0.11 0.05,0.15 0.03,0.03 0.08,0.05 0.13,0.05 0.06,0 0.11,-0.02 0.15,-0.07 0.03,-0.05 0.05,-0.11 0.05,-0.2zm-0.48 -0.32l0.15 0 -0.01 0.07c0.03,-0.03 0.06,-0.05 0.1,-0.07 0.04,-0.02 0.08,-0.02 0.12,-0.02 0.09,0 0.16,0.02 0.21,0.08 0.05,0.06 0.07,0.14 0.07,0.24 0,0.12 -0.03,0.22 -0.09,0.3 -0.06,0.08 -0.14,0.11 -0.23,0.11 -0.05,0 -0.09,-0.01 -0.13,-0.03 -0.04,-0.02 -0.08,-0.05 -0.12,-0.09l-0.05 0.43 -0.16 0 0.14 -1.02zm1.15 0.11c-0.07,0 -0.12,0.03 -0.17,0.08 -0.04,0.05 -0.06,0.11 -0.06,0.19 0,0.06 0.01,0.11 0.05,0.15 0.03,0.03 0.07,0.05 0.13,0.05 0.07,0 0.13,-0.02 0.18,-0.07 0.04,-0.05 0.06,-0.11 0.06,-0.19 0,-0.07 -0.02,-0.12 -0.05,-0.15 -0.03,-0.04 -0.08,-0.06 -0.14,-0.06zm0 -0.14c0.11,0 0.19,0.04 0.26,0.1 0.06,0.06 0.1,0.15 0.1,0.25 0,0.12 -0.04,0.21 -0.12,0.29 -0.07,0.07 -0.17,0.11 -0.29,0.11 -0.1,0 -0.19,-0.03 -0.25,-0.09 -0.07,-0.06 -0.1,-0.15 -0.1,-0.25 0,-0.12 0.04,-0.22 0.11,-0.29 0.08,-0.08 0.17,-0.12 0.29,-0.12zm0.63 0.4c0,0.07 0.02,0.12 0.05,0.16 0.03,0.03 0.07,0.05 0.13,0.05 0.06,0 0.11,-0.02 0.14,-0.07 0.04,-0.06 0.06,-0.13 0.06,-0.21 0,-0.06 -0.02,-0.11 -0.05,-0.15 -0.03,-0.03 -0.08,-0.05 -0.13,-0.05 -0.06,0 -0.11,0.02 -0.14,0.07 -0.04,0.05 -0.06,0.12 -0.06,0.2zm0.49 0.32l-0.16 0 0.01 -0.07c-0.03,0.04 -0.06,0.06 -0.1,0.08 -0.03,0.01 -0.07,0.02 -0.12,0.02 -0.09,0 -0.16,-0.03 -0.21,-0.09 -0.05,-0.05 -0.07,-0.13 -0.07,-0.24 0,-0.12 0.03,-0.22 0.09,-0.3 0.06,-0.08 0.14,-0.11 0.24,-0.11 0.04,0 0.09,0.01 0.13,0.03 0.04,0.02 0.08,0.05 0.11,0.09l0.07 -0.54 0.15 0 -0.14 1.13zm0.38 -0.43l0.35 0c0,-0.04 -0.01,-0.08 -0.04,-0.11 -0.03,-0.02 -0.06,-0.04 -0.11,-0.04 -0.05,0 -0.1,0.02 -0.13,0.04 -0.04,0.03 -0.06,0.07 -0.07,0.11zm0.34 0.22l0.12 0.09c-0.04,0.05 -0.09,0.09 -0.13,0.11 -0.05,0.03 -0.11,0.04 -0.17,0.04 -0.1,0 -0.18,-0.03 -0.25,-0.09 -0.06,-0.06 -0.09,-0.15 -0.09,-0.25 0,-0.12 0.04,-0.21 0.11,-0.29 0.07,-0.08 0.16,-0.11 0.28,-0.11 0.09,0 0.17,0.02 0.22,0.08 0.06,0.06 0.08,0.14 0.08,0.24 0,0.01 0,0.02 0,0.03 0,0.01 0,0.03 0,0.04l-0.53 0c0,0.07 0.02,0.12 0.05,0.16 0.03,0.03 0.07,0.05 0.13,0.05 0.03,0 0.07,-0.01 0.1,-0.03 0.03,-0.01 0.06,-0.04 0.08,-0.07zm1.2 0.21l0.05 -0.4c0,-0.01 0,-0.02 0,-0.02 0,-0.01 0,-0.02 0,-0.03 0,-0.05 0,-0.08 -0.02,-0.11 -0.02,-0.02 -0.05,-0.03 -0.09,-0.03 -0.05,0 -0.1,0.02 -0.13,0.06 -0.03,0.04 -0.05,0.1 -0.07,0.19l-0.04 0.34 -0.16 0 0.05 -0.4c0.01,-0.01 0.01,-0.02 0.01,-0.03 0,0 0,-0.01 0,-0.02 0,-0.05 -0.01,-0.08 -0.03,-0.11 -0.02,-0.02 -0.05,-0.03 -0.09,-0.03 -0.05,0 -0.1,0.02 -0.13,0.06 -0.03,0.04 -0.05,0.1 -0.06,0.19l-0.04 0.34 -0.16 0 0.09 -0.69 0.16 0 -0.02 0.08c0.03,-0.03 0.07,-0.06 0.11,-0.08 0.04,-0.02 0.08,-0.02 0.12,-0.02 0.05,0 0.09,0.01 0.13,0.03 0.03,0.02 0.05,0.05 0.07,0.09 0.04,-0.04 0.08,-0.07 0.12,-0.09 0.04,-0.02 0.09,-0.03 0.14,-0.03 0.06,0 0.12,0.01 0.15,0.05 0.04,0.04 0.06,0.09 0.06,0.16 0,0.02 0,0.04 -0.01,0.06 0,0.01 0,0.04 0,0.07l-0.05 0.37 -0.16 0zm0.75 -0.58c-0.07,0 -0.12,0.03 -0.17,0.08 -0.04,0.05 -0.06,0.11 -0.06,0.19 0,0.06 0.01,0.11 0.05,0.15 0.03,0.03 0.07,0.05 0.13,0.05 0.07,0 0.13,-0.02 0.18,-0.07 0.04,-0.05 0.06,-0.11 0.06,-0.19 0,-0.07 -0.02,-0.12 -0.05,-0.15 -0.03,-0.04 -0.08,-0.06 -0.14,-0.06zm0 -0.14c0.11,0 0.19,0.04 0.26,0.1 0.06,0.06 0.1,0.15 0.1,0.25 0,0.12 -0.04,0.21 -0.12,0.29 -0.07,0.07 -0.17,0.11 -0.29,0.11 -0.1,0 -0.19,-0.03 -0.25,-0.09 -0.07,-0.06 -0.1,-0.15 -0.1,-0.25 0,-0.12 0.04,-0.22 0.11,-0.29 0.08,-0.08 0.17,-0.12 0.29,-0.12zm0.5 0.52c0.02,0.03 0.05,0.06 0.08,0.08 0.03,0.02 0.07,0.03 0.1,0.03 0.03,0 0.06,-0.01 0.08,-0.02 0.02,-0.02 0.03,-0.04 0.03,-0.06 0,-0.04 -0.04,-0.07 -0.11,-0.11l-0.01 -0.01c-0.07,-0.04 -0.11,-0.07 -0.14,-0.1 -0.02,-0.03 -0.03,-0.07 -0.03,-0.11 0,-0.06 0.03,-0.11 0.07,-0.15 0.05,-0.05 0.11,-0.07 0.19,-0.07 0.05,0 0.09,0.01 0.13,0.03 0.04,0.02 0.08,0.04 0.12,0.08l-0.1 0.1c-0.02,-0.03 -0.05,-0.05 -0.08,-0.06 -0.03,-0.02 -0.05,-0.02 -0.08,-0.02 -0.03,0 -0.05,0 -0.07,0.02 -0.02,0.01 -0.02,0.03 -0.02,0.05 0,0.03 0.03,0.07 0.09,0.1 0.02,0.01 0.04,0.02 0.05,0.03 0.06,0.03 0.09,0.05 0.11,0.08 0.02,0.03 0.03,0.07 0.03,0.11 0,0.07 -0.02,0.13 -0.07,0.17 -0.05,0.04 -0.11,0.06 -0.19,0.06 -0.06,0 -0.11,-0.01 -0.15,-0.03 -0.05,-0.02 -0.09,-0.06 -0.12,-0.1l0.09 -0.1zm1.18 -0.12c0,0.06 0.01,0.12 0.04,0.15 0.03,0.04 0.07,0.06 0.13,0.06 0.06,0 0.11,-0.03 0.15,-0.08 0.03,-0.05 0.05,-0.12 0.05,-0.2 0,-0.06 -0.01,-0.11 -0.05,-0.15 -0.03,-0.03 -0.07,-0.05 -0.13,-0.05 -0.06,0 -0.11,0.02 -0.14,0.07 -0.04,0.05 -0.05,0.12 -0.05,0.2zm0.48 0.32l-0.16 0 0.01 -0.07c-0.02,0.03 -0.06,0.06 -0.09,0.07 -0.04,0.02 -0.08,0.03 -0.12,0.03 -0.09,0 -0.16,-0.03 -0.21,-0.09 -0.05,-0.05 -0.08,-0.14 -0.08,-0.24 0,-0.12 0.03,-0.22 0.09,-0.3 0.06,-0.08 0.14,-0.11 0.24,-0.11 0.05,0 0.09,0.01 0.13,0.02 0.04,0.02 0.08,0.05 0.11,0.09l0.01 -0.09 0.16 0 -0.09 0.69zm0.27 0.33l-0.17 0 0.28 -0.44 -0.2 -0.58 0.17 0 0.1 0.33c0,0.01 0.01,0.03 0.01,0.05 0.01,0.03 0.01,0.05 0.01,0.08 0.01,-0.02 0.02,-0.04 0.03,-0.06 0.01,-0.02 0.02,-0.04 0.03,-0.06l0.2 -0.34 0.18 0 -0.64 1.02zm0.72 -1.02l0.16 0 -0.04 0.29c0,0.01 0,0.02 0,0.03 -0.01,0.06 -0.02,0.1 -0.02,0.12 0,0.05 0.02,0.08 0.04,0.11 0.03,0.02 0.06,0.03 0.11,0.03 0.06,0 0.11,-0.02 0.14,-0.05 0.03,-0.04 0.05,-0.1 0.06,-0.2l0.05 -0.33 0.15 0 -0.04 0.35c-0.02,0.09 -0.03,0.16 -0.05,0.19 -0.01,0.04 -0.03,0.07 -0.06,0.1 -0.03,0.02 -0.07,0.05 -0.11,0.06 -0.05,0.01 -0.1,0.02 -0.15,0.02 -0.1,0 -0.17,-0.02 -0.22,-0.07 -0.05,-0.04 -0.08,-0.1 -0.08,-0.19 0,-0.02 0.01,-0.07 0.02,-0.14l0 0 0.04 -0.32zm0.93 0.37c0,0.07 0.02,0.12 0.05,0.16 0.03,0.03 0.07,0.05 0.13,0.05 0.06,0 0.11,-0.02 0.15,-0.07 0.03,-0.06 0.05,-0.13 0.05,-0.21 0,-0.06 -0.02,-0.11 -0.05,-0.15 -0.03,-0.03 -0.07,-0.05 -0.13,-0.05 -0.06,0 -0.11,0.02 -0.14,0.07 -0.04,0.05 -0.06,0.12 -0.06,0.2zm0.49 0.32l-0.16 0 0.01 -0.07c-0.03,0.04 -0.06,0.06 -0.1,0.08 -0.03,0.01 -0.07,0.02 -0.12,0.02 -0.09,0 -0.16,-0.03 -0.21,-0.09 -0.05,-0.05 -0.07,-0.13 -0.07,-0.24 0,-0.12 0.03,-0.22 0.09,-0.3 0.06,-0.08 0.14,-0.11 0.24,-0.11 0.04,0 0.09,0.01 0.13,0.03 0.04,0.02 0.08,0.05 0.11,0.09l0.07 -0.54 0.16 0 -0.15 1.13zm0.37 -0.32c0,0.06 0.02,0.12 0.05,0.15 0.03,0.04 0.07,0.06 0.13,0.06 0.06,0 0.11,-0.03 0.14,-0.08 0.04,-0.05 0.06,-0.12 0.06,-0.2 0,-0.06 -0.02,-0.11 -0.05,-0.15 -0.03,-0.03 -0.08,-0.05 -0.13,-0.05 -0.06,0 -0.11,0.02 -0.14,0.07 -0.04,0.05 -0.06,0.12 -0.06,0.2zm0.49 0.32l-0.16 0 0.01 -0.07c-0.03,0.03 -0.06,0.06 -0.09,0.07 -0.04,0.02 -0.08,0.03 -0.13,0.03 -0.09,0 -0.16,-0.03 -0.21,-0.09 -0.05,-0.05 -0.07,-0.14 -0.07,-0.24 0,-0.12 0.03,-0.22 0.09,-0.3 0.06,-0.08 0.14,-0.11 0.24,-0.11 0.04,0 0.09,0.01 0.13,0.02 0.04,0.02 0.07,0.05 0.11,0.09l0.01 -0.09 0.16 0 -0.09 0.69zm0.68 -0.55c-0.01,-0.01 -0.02,-0.02 -0.04,-0.02 -0.01,0 -0.02,-0.01 -0.04,-0.01 -0.05,0 -0.1,0.03 -0.13,0.07 -0.03,0.04 -0.05,0.1 -0.06,0.19l-0.05 0.32 -0.15 0 0.09 -0.69 0.15 0 -0.01 0.09c0.02,-0.04 0.05,-0.07 0.09,-0.09 0.03,-0.01 0.06,-0.02 0.1,-0.02 0.02,0 0.04,0 0.05,0 0.02,0.01 0.03,0.01 0.05,0.02l-0.05 0.14zm0.08 0.55l0.07 -0.56 -0.12 0 0.02 -0.13 0.12 0 0.04 -0.26 0.15 0 -0.03 0.26 0.13 0 -0.02 0.13 -0.13 0 -0.07 0.56 -0.16 0zm0.59 -0.43l0.36 0c-0.01,-0.04 -0.02,-0.08 -0.05,-0.11 -0.02,-0.02 -0.06,-0.04 -0.11,-0.04 -0.05,0 -0.09,0.02 -0.13,0.04 -0.04,0.03 -0.06,0.07 -0.07,0.11zm0.35 0.22l0.11 0.09c-0.04,0.05 -0.08,0.09 -0.13,0.11 -0.05,0.03 -0.1,0.04 -0.16,0.04 -0.11,0 -0.19,-0.03 -0.25,-0.09 -0.07,-0.06 -0.1,-0.15 -0.1,-0.25 0,-0.12 0.04,-0.21 0.11,-0.29 0.07,-0.08 0.17,-0.11 0.28,-0.11 0.09,0 0.17,0.02 0.22,0.08 0.06,0.06 0.09,0.14 0.09,0.24 0,0.01 0,0.02 0,0.03 0,0.01 0,0.03 -0.01,0.04l-0.52 0c0,0.07 0.01,0.12 0.04,0.16 0.03,0.03 0.08,0.05 0.13,0.05 0.04,0 0.07,-0.01 0.1,-0.03 0.04,-0.01 0.06,-0.04 0.09,-0.07zm0.45 0.14c0,-0.03 0.01,-0.05 0.03,-0.07 0.02,-0.01 0.04,-0.02 0.07,-0.02 0.03,0 0.05,0.01 0.07,0.02 0.02,0.02 0.03,0.04 0.03,0.07 0,0.03 -0.01,0.05 -0.03,0.07 -0.02,0.02 -0.04,0.03 -0.07,0.03 -0.03,0 -0.05,-0.01 -0.07,-0.03 -0.02,-0.02 -0.03,-0.04 -0.03,-0.07zm0.42 -0.39c-0.01,0.07 -0.04,0.13 -0.08,0.17 -0.05,0.04 -0.1,0.06 -0.18,0.06 -0.07,0 -0.13,-0.02 -0.17,-0.06 -0.05,-0.04 -0.07,-0.09 -0.07,-0.15 0,-0.06 0.01,-0.11 0.04,-0.14 0.03,-0.04 0.08,-0.08 0.17,-0.12l0.02 -0.01c0.11,-0.06 0.17,-0.11 0.17,-0.16 0,-0.03 -0.01,-0.05 -0.03,-0.07 -0.02,-0.02 -0.05,-0.03 -0.08,-0.03 -0.04,0 -0.06,0.01 -0.09,0.04 -0.02,0.02 -0.03,0.05 -0.04,0.08l-0.14 0c0,-0.07 0.03,-0.13 0.08,-0.18 0.05,-0.04 0.12,-0.06 0.2,-0.06 0.08,0 0.14,0.02 0.19,0.06 0.04,0.04 0.07,0.1 0.07,0.16 0,0.05 -0.02,0.09 -0.05,0.13 -0.03,0.03 -0.07,0.07 -0.13,0.1 -0.02,0.01 -0.04,0.02 -0.07,0.04 -0.11,0.05 -0.16,0.1 -0.16,0.14 0,0.03 0.01,0.05 0.02,0.07 0.02,0.01 0.04,0.02 0.07,0.02 0.03,0 0.06,-0.01 0.07,-0.02 0.02,-0.02 0.03,-0.04 0.04,-0.07l0.15 0z"/>
   <g>
    <path class="fil3" d="M22.64 7.56c-0.38,-0.74 -0.57,-1.55 -0.57,-2.38 0,-2.86 2.32,-5.18 5.18,-5.18 2.86,0 5.18,2.32 5.18,5.18 0,2.86 -2.32,5.18 -5.18,5.18 -0.76,0 -1.5,-0.16 -2.18,-0.48l-3.51 0.92 1.08 -3.24z"/>
    <path class="fil4" d="M22.85 7.4c-0.36,-0.7 -0.55,-1.46 -0.55,-2.25 0,-2.7 2.19,-4.89 4.89,-4.89 2.7,0 4.89,2.19 4.89,4.89 0,2.7 -2.19,4.89 -4.89,4.89 -0.71,0 -1.41,-0.15 -2.05,-0.45l-3.31 0.87 1.02 -3.06z"/>
    <g>
     <path class="fil5" d="M22.77 9.58l0.75 -2.24c-0.38,-0.64 -0.6,-1.39 -0.6,-2.19 0,-2.36 1.91,-4.27 4.27,-4.27 2.37,0 4.28,1.91 4.28,4.27 0,2.37 -1.91,4.28 -4.28,4.28 -0.71,0 -1.39,-0.18 -1.99,-0.49l-2.43 0.64z"/>
     <path class="fil6" d="M29.92 6.58c-0.19,-0.38 -0.92,-0.8 -0.92,-0.8 -0.17,-0.1 -0.37,-0.11 -0.46,0.06 0,0 -0.24,0.28 -0.3,0.32 -0.27,0.19 -0.53,0.18 -0.78,-0.07l-1.2 -1.2c-0.26,-0.26 -0.26,-0.51 -0.08,-0.79 0.04,-0.06 0.33,-0.29 0.33,-0.29 0.16,-0.1 0.15,-0.3 0.06,-0.46 0,0 -0.43,-0.73 -0.8,-0.93 -0.16,-0.08 -0.35,-0.05 -0.48,0.08l-0.26 0.26c-0.84,0.84 -0.43,1.78 0.41,2.62l1.53 1.53c0.83,0.84 1.78,1.25 2.62,0.41l0.26 -0.26c0.13,-0.13 0.16,-0.32 0.07,-0.48z"/>
    </g>
   </g>
  </g>
 </g>
</svg>
