<?xml version="1.0" encoding="UTF-8"?>
<!DOCTYPE svg PUBLIC "-//W3C//DTD SVG 1.1//EN" "http://www.w3.org/Graphics/SVG/1.1/DTD/svg11.dtd">
<!-- Creator: CorelDRAW 2017 -->
<svg xmlns="http://www.w3.org/2000/svg" xml:space="preserve" width="40px" height="40px" version="1.1" style="shape-rendering:geometricPrecision; text-rendering:geometricPrecision; image-rendering:optimizeQuality; fill-rule:evenodd; clip-rule:evenodd"
viewBox="0 0 3.06 3.05"
 xmlns:xlink="http://www.w3.org/1999/xlink">
 <defs>
  <style type="text/css">
   <![CDATA[
    .fil1 {fill:white}
    .fil2 {fill:#2CB742;fill-rule:nonzero}
    .fil3 {fill:white;fill-rule:nonzero}
    .fil0 {fill:black;fill-opacity:0.149020}
   ]]>
  </style>
 </defs>
 <g id="Capa_x0020_1">
  <metadata id="CorelCorpID_0Corel-Layer"/>
  <g id="_2081842753872">
   <path class="fil0" d="M0.31 2.13c-0.11,-0.21 -0.17,-0.43 -0.17,-0.67 0,-0.81 0.66,-1.46 1.46,-1.46 0.81,0 1.46,0.65 1.46,1.46 0,0.81 -0.65,1.46 -1.46,1.46 -0.21,0 -0.42,-0.04 -0.61,-0.13l-0.99 0.26 0.31 -0.92z"/>
   <path class="fil1" d="M0.36 2.09c-0.1,-0.2 -0.15,-0.42 -0.15,-0.64 0,-0.76 0.62,-1.38 1.38,-1.38 0.76,0 1.38,0.62 1.38,1.38 0,0.76 -0.62,1.38 -1.38,1.38 -0.2,0 -0.4,-0.04 -0.58,-0.13l-0.93 0.25 0.28 -0.86z"/>
   <g>
    <path class="fil2" d="M0.34 2.7l0.21 -0.63c-0.11,-0.18 -0.17,-0.39 -0.17,-0.62 0,-0.66 0.54,-1.2 1.21,-1.2 0.66,0 1.2,0.54 1.2,1.2 0,0.67 -0.54,1.21 -1.2,1.21 -0.2,0 -0.4,-0.05 -0.56,-0.14l-0.69 0.18z"/>
    <path class="fil3" d="M2.36 1.85c-0.06,-0.1 -0.26,-0.22 -0.26,-0.22 -0.05,-0.03 -0.11,-0.03 -0.13,0.02 0,0 -0.07,0.08 -0.09,0.09 -0.07,0.05 -0.15,0.05 -0.22,-0.02l-0.33 -0.34c-0.08,-0.07 -0.08,-0.14 -0.03,-0.22 0.01,-0.02 0.09,-0.09 0.09,-0.09 0.05,-0.02 0.05,-0.08 0.02,-0.13 0,0 -0.12,-0.2 -0.22,-0.26 -0.05,-0.02 -0.1,-0.01 -0.14,0.02l-0.07 0.08c-0.24,0.23 -0.12,0.5 0.11,0.74l0.43 0.43c0.24,0.23 0.51,0.35 0.74,0.11l0.08 -0.07c0.03,-0.04 0.04,-0.09 0.02,-0.14z"/>
   </g>
  </g>
 </g>
</svg>
